<svg version="1.1" viewBox="0.0 0.0 914.7427821522309 647.2545931758531" fill="none" stroke="none" stroke-linecap="square" stroke-miterlimit="10" xmlns:xlink="http://www.w3.org/1999/xlink" xmlns="http://www.w3.org/2000/svg"><clipPath id="p.0"><path d="m0 0l914.7428 0l0 647.2546l-914.7428 0l0 -647.2546z" clip-rule="nonzero"/></clipPath><g clip-path="url(#p.0)"><path fill="#000000" fill-opacity="0.0" d="m0 0l914.7428 0l0 647.2546l-914.7428 0z" fill-rule="evenodd"/><path fill="#000000" fill-opacity="0.0" d="m5.731863 74.7462l0 0c0 -38.228436 30.99027 -69.218704 69.218704 -69.218704l276.86652 0l0 0c18.357971 0 35.96402 7.292664 48.945038 20.273691c12.981018 12.981024 20.273682 30.587072 20.273682 48.945015l0 495.56085c0 38.228455 -30.990265 69.21875 -69.21872 69.21875l-276.86652 0c-38.228436 0 -69.218704 -30.990295 -69.218704 -69.21875z" fill-rule="evenodd"/><path stroke="#000000" stroke-width="4.0" stroke-linejoin="round" stroke-linecap="butt" stroke-dasharray="16.0,12.0" d="m5.731863 74.7462l0 0c0 -38.228436 30.99027 -69.218704 69.218704 -69.218704l276.86652 0l0 0c18.357971 0 35.96402 7.292664 48.945038 20.273691c12.981018 12.981024 20.273682 30.587072 20.273682 48.945015l0 495.56085c0 38.228455 -30.990265 69.21875 -69.21872 69.21875l-276.86652 0c-38.228436 0 -69.218704 -30.990295 -69.218704 -69.21875z" fill-rule="evenodd"/><path fill="#ff9900" d="m138.1663 72.60852l0 0c0 -9.598335 7.7809753 -17.379322 17.379318 -17.379322l115.673676 0c4.6092834 0 9.029785 1.831028 12.289032 5.0902863c3.2592468 3.2592545 5.090271 7.6797523 5.090271 12.289036l0 69.5152c0 9.598328 -7.7809753 17.379318 -17.379303 17.379318l-115.673676 0c-9.598343 0 -17.379318 -7.7809906 -17.379318 -17.379318z" fill-rule="evenodd"/><path stroke="#000000" stroke-width="1.0" stroke-linejoin="round" stroke-linecap="butt" d="m138.1663 72.60852l0 0c0 -9.598335 7.7809753 -17.379322 17.379318 -17.379322l115.673676 0c4.6092834 0 9.029785 1.831028 12.289032 5.0902863c3.2592468 3.2592545 5.090271 7.6797523 5.090271 12.289036l0 69.5152c0 9.598328 -7.7809753 17.379318 -17.379303 17.379318l-115.673676 0c-9.598343 0 -17.379318 -7.7809906 -17.379318 -17.379318z" fill-rule="evenodd"/><path fill="#ff9900" d="m138.1663 502.9296l0 0c0 -9.598358 7.7809753 -17.379333 17.379318 -17.379333l115.673676 0c4.6092834 0 9.029785 1.8310242 12.289032 5.090271c3.2592468 3.2592773 5.090271 7.679779 5.090271 12.2890625l0 69.51517c0 9.598328 -7.7809753 17.379333 -17.379303 17.379333l-115.673676 0c-9.598343 0 -17.379318 -7.781006 -17.379318 -17.379333z" fill-rule="evenodd"/><path stroke="#000000" stroke-width="1.0" stroke-linejoin="round" stroke-linecap="butt" d="m138.1663 502.9296l0 0c0 -9.598358 7.7809753 -17.379333 17.379318 -17.379333l115.673676 0c4.6092834 0 9.029785 1.8310242 12.289032 5.090271c3.2592468 3.2592773 5.090271 7.679779 5.090271 12.2890625l0 69.51517c0 9.598328 -7.7809753 17.379333 -17.379303 17.379333l-115.673676 0c-9.598343 0 -17.379318 -7.781006 -17.379318 -17.379333z" fill-rule="evenodd"/><path fill="#ff9900" d="m233.3003 287.76904l0 0c0 -9.598328 7.7809906 -17.379303 17.379318 -17.379303l115.67366 0c4.6092834 0 9.029785 1.8310242 12.2890625 5.090271c3.2592468 3.2592468 5.090271 7.6797485 5.090271 12.289032l0 69.5152c0 9.598328 -7.7809753 17.379333 -17.379333 17.379333l-115.67366 0c-9.598328 0 -17.379318 -7.781006 -17.379318 -17.379333z" fill-rule="evenodd"/><path stroke="#000000" stroke-width="1.0" stroke-linejoin="round" stroke-linecap="butt" d="m233.3003 287.76904l0 0c0 -9.598328 7.7809906 -17.379303 17.379318 -17.379303l115.67366 0c4.6092834 0 9.029785 1.8310242 12.2890625 5.090271c3.2592468 3.2592468 5.090271 7.6797485 5.090271 12.289032l0 69.5152c0 9.598328 -7.7809753 17.379333 -17.379333 17.379333l-115.67366 0c-9.598328 0 -17.379318 -7.781006 -17.379318 -17.379333z" fill-rule="evenodd"/><path fill="#ff9900" d="m43.03231 287.76904l0 0c0 -9.598328 7.780987 -17.379303 17.379318 -17.379303l115.67367 0c4.6092834 0 9.029785 1.8310242 12.289047 5.090271c3.2592468 3.2592468 5.0902863 7.6797485 5.0902863 12.289032l0 69.5152c0 9.598328 -7.7809906 17.379333 -17.379333 17.379333l-115.67367 0c-9.598331 0 -17.379318 -7.781006 -17.379318 -17.379333z" fill-rule="evenodd"/><path stroke="#000000" stroke-width="1.0" stroke-linejoin="round" stroke-linecap="butt" d="m43.03231 287.76904l0 0c0 -9.598328 7.780987 -17.379303 17.379318 -17.379303l115.67367 0c4.6092834 0 9.029785 1.8310242 12.289047 5.090271c3.2592468 3.2592468 5.0902863 7.6797485 5.0902863 12.289032l0 69.5152c0 9.598328 -7.7809906 17.379333 -17.379333 17.379333l-115.67367 0c-9.598331 0 -17.379318 -7.781006 -17.379318 -17.379333z" fill-rule="evenodd"/><path fill="#000000" fill-opacity="0.0" d="m213.38246 159.50304c0 27.721863 -23.789337 41.579193 -47.578674 55.443726c-23.789337 13.864532 -47.578667 27.736282 -47.578667 55.47255" fill-rule="evenodd"/><path stroke="#000000" stroke-width="4.0" stroke-linejoin="round" stroke-linecap="butt" d="m213.38246 159.50304c0 27.721863 -23.789337 41.579193 -47.578674 55.443726c-23.789337 13.864532 -47.578667 27.736282 -47.578667 55.47255" fill-rule="evenodd"/><path fill="#000000" fill-opacity="0.0" d="m213.38246 159.50304c0 27.721863 23.789337 41.579193 47.57866 55.443726c23.789337 13.864532 47.578674 27.736282 47.578674 55.47255" fill-rule="evenodd"/><path stroke="#000000" stroke-width="4.0" stroke-linejoin="round" stroke-linecap="butt" d="m213.38246 159.50304c0 27.721863 23.789337 41.579193 47.57866 55.443726c23.789337 13.864532 47.578674 27.736282 47.578674 55.47255" fill-rule="evenodd"/><path fill="#000000" fill-opacity="0.0" d="m118.24847 374.66357c0 27.721863 23.78933 41.579193 47.578667 55.443726c23.789337 13.864532 47.578674 27.736267 47.578674 55.472565" fill-rule="evenodd"/><path stroke="#000000" stroke-width="4.0" stroke-linejoin="round" stroke-linecap="butt" d="m118.24847 374.66357c0 27.721863 23.78933 41.579193 47.578667 55.443726c23.789337 13.864532 47.578674 27.736267 47.578674 55.472565" fill-rule="evenodd"/><path fill="#000000" fill-opacity="0.0" d="m308.51645 374.66357c0 27.721863 -23.789337 41.579193 -47.578674 55.443726c-23.789322 13.864532 -47.57866 27.736267 -47.57866 55.472565" fill-rule="evenodd"/><path stroke="#000000" stroke-width="4.0" stroke-linejoin="round" stroke-linecap="butt" d="m308.51645 374.66357c0 27.721863 -23.789337 41.579193 -47.578674 55.443726c-23.789322 13.864532 -47.57866 27.736267 -47.57866 55.472565" fill-rule="evenodd"/><path fill="#000000" fill-opacity="0.0" d="m461.1509 81.9188l0 0c0 -40.8293 33.098694 -73.927986 73.92801 -73.927986l295.70306 0l0 0c19.606934 0 38.410828 7.788819 52.274963 21.653006c13.864197 13.864187 21.653015 32.66806 21.653015 52.27498l0 481.21487c0 40.829346 -33.098694 73.92804 -73.92798 73.92804l-295.70306 0c-40.829315 0 -73.92801 -33.098694 -73.92801 -73.92804z" fill-rule="evenodd"/><path stroke="#000000" stroke-width="4.0" stroke-linejoin="round" stroke-linecap="butt" stroke-dasharray="16.0,12.0" d="m461.1509 81.9188l0 0c0 -40.8293 33.098694 -73.927986 73.92801 -73.927986l295.70306 0l0 0c19.606934 0 38.410828 7.788819 52.274963 21.653006c13.864197 13.864187 21.653015 32.66806 21.653015 52.27498l0 481.21487c0 40.829346 -33.098694 73.92804 -73.92798 73.92804l-295.70306 0c-40.829315 0 -73.92801 -33.098694 -73.92801 -73.92804z" fill-rule="evenodd"/><path fill="#4a86e8" d="m632.1926 75.514854l0 0c0 -6.3586044 5.154663 -11.513275 11.513245 -11.513275l103.16986 0c3.0535278 0 5.9819336 1.2130051 8.141113 3.3721619c2.1591797 2.1591568 3.3721924 5.0876007 3.3721924 8.141113l0 46.05172c0 6.358612 -5.154724 11.513275 -11.513306 11.513275l-103.16986 0c-6.3585815 0 -11.513245 -5.154663 -11.513245 -11.513275z" fill-rule="evenodd"/><path stroke="#000000" stroke-width="1.0" stroke-linejoin="round" stroke-linecap="butt" d="m632.1926 75.514854l0 0c0 -6.3586044 5.154663 -11.513275 11.513245 -11.513275l103.16986 0c3.0535278 0 5.9819336 1.2130051 8.141113 3.3721619c2.1591797 2.1591568 3.3721924 5.0876007 3.3721924 8.141113l0 46.05172c0 6.358612 -5.154724 11.513275 -11.513306 11.513275l-103.16986 0c-6.3585815 0 -11.513245 -5.154663 -11.513245 -11.513275z" fill-rule="evenodd"/><path fill="#4a86e8" d="m728.2547 255.30818l0 0c0 -6.358612 5.154663 -11.513275 11.513245 -11.513275l103.16986 0c3.0535278 0 5.9819946 1.2129974 8.141113 3.3721466c2.1591797 2.1591644 3.3721924 5.087616 3.3721924 8.141129l0 46.051712c0 6.358612 -5.154663 11.513275 -11.513306 11.513275l-103.16986 0c-6.3585815 0 -11.513245 -5.154663 -11.513245 -11.513275z" fill-rule="evenodd"/><path stroke="#000000" stroke-width="1.0" stroke-linejoin="round" stroke-linecap="butt" d="m728.2547 255.30818l0 0c0 -6.358612 5.154663 -11.513275 11.513245 -11.513275l103.16986 0c3.0535278 0 5.9819946 1.2129974 8.141113 3.3721466c2.1591797 2.1591644 3.3721924 5.087616 3.3721924 8.141129l0 46.051712c0 6.358612 -5.154663 11.513275 -11.513306 11.513275l-103.16986 0c-6.3585815 0 -11.513245 -5.154663 -11.513245 -11.513275z" fill-rule="evenodd"/><path fill="#000000" fill-opacity="0.0" d="m695.29083 133.07985c0 27.67891 -30.208069 41.520035 -60.416138 55.35782c-30.208069 13.837799 -60.416077 27.672272 -60.416077 55.344543" fill-rule="evenodd"/><path stroke="#000000" stroke-width="4.0" stroke-linejoin="round" stroke-linecap="butt" d="m695.29083 133.07985c0 27.67891 -30.208069 41.520035 -60.416138 55.35782c-30.208069 13.837799 -60.416077 27.672272 -60.416077 55.344543" fill-rule="evenodd"/><path fill="#ffffff" d="m511.38574 255.30933l0 0c0 -6.358612 5.154663 -11.513275 11.513245 -11.513275l103.16986 0c3.0535278 0 5.9819946 1.2129974 8.141113 3.3721619c2.1591797 2.1591644 3.3721924 5.0876007 3.3721924 8.141113l0 46.051727c0 6.358612 -5.154663 11.513275 -11.513306 11.513275l-103.16986 0c-6.3585815 0 -11.513245 -5.154663 -11.513245 -11.513275z" fill-rule="evenodd"/><path stroke="#000000" stroke-width="1.0" stroke-linejoin="round" stroke-linecap="butt" d="m511.38574 255.30933l0 0c0 -6.358612 5.154663 -11.513275 11.513245 -11.513275l103.16986 0c3.0535278 0 5.9819946 1.2129974 8.141113 3.3721619c2.1591797 2.1591644 3.3721924 5.0876007 3.3721924 8.141113l0 46.051727c0 6.358612 -5.154663 11.513275 -11.513306 11.513275l-103.16986 0c-6.3585815 0 -11.513245 -5.154663 -11.513245 -11.513275z" fill-rule="evenodd"/><path fill="#ff9900" d="m561.82855 256.51123l0 0c0 -0.8380585 0.6793823 -1.517456 1.517456 -1.517456l22.330566 0c0.40246582 0 0.78845215 0.15988159 1.072998 0.444458c0.28460693 0.28457642 0.444458 0.6705322 0.444458 1.072998l0 6.0696106c0 0.83807373 -0.6793823 1.517456 -1.517456 1.517456l-22.330566 0c-0.83807373 0 -1.517456 -0.6793823 -1.517456 -1.517456z" fill-rule="evenodd"/><path stroke="#000000" stroke-width="1.0" stroke-linejoin="round" stroke-linecap="butt" d="m561.82855 256.51123l0 0c0 -0.8380585 0.6793823 -1.517456 1.517456 -1.517456l22.330566 0c0.40246582 0 0.78845215 0.15988159 1.072998 0.444458c0.28460693 0.28457642 0.444458 0.6705322 0.444458 1.072998l0 6.0696106c0 0.83807373 -0.6793823 1.517456 -1.517456 1.517456l-22.330566 0c-0.83807373 0 -1.517456 -0.6793823 -1.517456 -1.517456z" fill-rule="evenodd"/><path fill="#ff9900" d="m561.82855 294.08408l0 0c0 -0.83807373 0.6793823 -1.517456 1.517456 -1.517456l22.330566 0c0.40246582 0 0.78845215 0.15988159 1.072998 0.444458c0.28460693 0.28457642 0.444458 0.67056274 0.444458 1.072998l0 6.0696106c0 0.83807373 -0.6793823 1.517456 -1.517456 1.517456l-22.330566 0c-0.83807373 0 -1.517456 -0.6793823 -1.517456 -1.517456z" fill-rule="evenodd"/><path stroke="#000000" stroke-width="1.0" stroke-linejoin="round" stroke-linecap="butt" d="m561.82855 294.08408l0 0c0 -0.83807373 0.6793823 -1.517456 1.517456 -1.517456l22.330566 0c0.40246582 0 0.78845215 0.15988159 1.072998 0.444458c0.28460693 0.28457642 0.444458 0.67056274 0.444458 1.072998l0 6.0696106c0 0.83807373 -0.6793823 1.517456 -1.517456 1.517456l-22.330566 0c-0.83807373 0 -1.517456 -0.6793823 -1.517456 -1.517456z" fill-rule="evenodd"/><path fill="#ff9900" d="m577.8698 275.29767l0 0c0 -0.83807373 0.6793823 -1.517456 1.517456 -1.517456l22.330566 0c0.40246582 0 0.7883911 0.15985107 1.072998 0.444458c0.2845459 0.28457642 0.444458 0.6705322 0.444458 1.072998l0 6.0696106c0 0.8380432 -0.6793823 1.517456 -1.517456 1.517456l-22.330566 0c-0.83807373 0 -1.517456 -0.67941284 -1.517456 -1.517456z" fill-rule="evenodd"/><path stroke="#000000" stroke-width="1.0" stroke-linejoin="round" stroke-linecap="butt" d="m577.8698 275.29767l0 0c0 -0.83807373 0.6793823 -1.517456 1.517456 -1.517456l22.330566 0c0.40246582 0 0.7883911 0.15985107 1.072998 0.444458c0.2845459 0.28457642 0.444458 0.6705322 0.444458 1.072998l0 6.0696106c0 0.8380432 -0.6793823 1.517456 -1.517456 1.517456l-22.330566 0c-0.83807373 0 -1.517456 -0.67941284 -1.517456 -1.517456z" fill-rule="evenodd"/><path fill="#ff9900" d="m545.78735 275.29767l0 0c0 -0.83807373 0.6793823 -1.517456 1.517456 -1.517456l22.330566 0c0.40246582 0 0.7883911 0.15985107 1.072998 0.444458c0.2845459 0.28457642 0.444458 0.6705322 0.444458 1.072998l0 6.0696106c0 0.8380432 -0.6793823 1.517456 -1.517456 1.517456l-22.330566 0c-0.83807373 0 -1.517456 -0.67941284 -1.517456 -1.517456z" fill-rule="evenodd"/><path stroke="#000000" stroke-width="1.0" stroke-linejoin="round" stroke-linecap="butt" d="m545.78735 275.29767l0 0c0 -0.83807373 0.6793823 -1.517456 1.517456 -1.517456l22.330566 0c0.40246582 0 0.7883911 0.15985107 1.072998 0.444458c0.2845459 0.28457642 0.444458 0.6705322 0.444458 1.072998l0 6.0696106c0 0.8380432 -0.6793823 1.517456 -1.517456 1.517456l-22.330566 0c-0.83807373 0 -1.517456 -0.67941284 -1.517456 -1.517456z" fill-rule="evenodd"/><path fill="#000000" fill-opacity="0.0" d="m574.5113 264.0983c0 2.4204712 -4.008484 3.6322021 -8.017029 4.8409424c-4.008484 1.2087402 -8.017029 2.4144897 -8.017029 4.828949" fill-rule="evenodd"/><path stroke="#000000" stroke-width="4.0" stroke-linejoin="round" stroke-linecap="butt" d="m574.5113 264.0983c0 2.4204712 -4.008484 3.6322021 -8.017029 4.8409424c-4.008484 1.2087402 -8.017029 2.4144897 -8.017029 4.828949" fill-rule="evenodd"/><path fill="#000000" fill-opacity="0.0" d="m574.5113 264.0983c0 2.4204712 4.008545 3.6322021 8.017029 4.8409424c4.008545 1.2087402 8.017029 2.4144897 8.017029 4.828949" fill-rule="evenodd"/><path stroke="#000000" stroke-width="4.0" stroke-linejoin="round" stroke-linecap="butt" d="m574.5113 264.0983c0 2.4204712 4.008545 3.6322021 8.017029 4.8409424c4.008545 1.2087402 8.017029 2.4144897 8.017029 4.828949" fill-rule="evenodd"/><path fill="#000000" fill-opacity="0.0" d="m558.4701 282.88474c0 2.4204712 4.008484 3.6322021 8.017029 4.8409424c4.008484 1.2087402 8.017029 2.4144592 8.017029 4.828949" fill-rule="evenodd"/><path stroke="#000000" stroke-width="4.0" stroke-linejoin="round" stroke-linecap="butt" d="m558.4701 282.88474c0 2.4204712 4.008484 3.6322021 8.017029 4.8409424c4.008484 1.2087402 8.017029 2.4144592 8.017029 4.828949" fill-rule="evenodd"/><path fill="#000000" fill-opacity="0.0" d="m590.55255 282.88474c0 2.4204712 -4.008545 3.6322021 -8.017029 4.8409424c-4.008545 1.2087402 -8.017029 2.4144592 -8.017029 4.828949" fill-rule="evenodd"/><path stroke="#000000" stroke-width="4.0" stroke-linejoin="round" stroke-linecap="butt" d="m590.55255 282.88474c0 2.4204712 -4.008545 3.6322021 -8.017029 4.8409424c-4.008545 1.2087402 -8.017029 2.4144592 -8.017029 4.828949" fill-rule="evenodd"/><path fill="#ffffff" d="m728.28235 400.78375l0 0c0 -6.3585815 5.154663 -11.513275 11.513245 -11.513275l103.16986 0c3.0535278 0 5.9819946 1.2130127 8.141113 3.3721619c2.1591797 2.1591797 3.3721924 5.087616 3.3721924 8.141113l0 46.051727c0 6.358612 -5.154663 11.513275 -11.513306 11.513275l-103.16986 0c-6.3585815 0 -11.513245 -5.154663 -11.513245 -11.513275z" fill-rule="evenodd"/><path stroke="#000000" stroke-width="1.0" stroke-linejoin="round" stroke-linecap="butt" d="m728.28235 400.78375l0 0c0 -6.3585815 5.154663 -11.513275 11.513245 -11.513275l103.16986 0c3.0535278 0 5.9819946 1.2130127 8.141113 3.3721619c2.1591797 2.1591797 3.3721924 5.087616 3.3721924 8.141113l0 46.051727c0 6.358612 -5.154663 11.513275 -11.513306 11.513275l-103.16986 0c-6.3585815 0 -11.513245 -5.154663 -11.513245 -11.513275z" fill-rule="evenodd"/><path fill="#ff9900" d="m778.72516 401.98566l0 0c0 -0.8380432 0.6793823 -1.517456 1.517456 -1.517456l22.330566 0c0.40246582 0 0.78845215 0.15988159 1.072998 0.444458c0.28460693 0.28457642 0.444458 0.67056274 0.444458 1.072998l0 6.0696106c0 0.83807373 -0.6793823 1.517456 -1.517456 1.517456l-22.330566 0c-0.83807373 0 -1.517456 -0.6793823 -1.517456 -1.517456z" fill-rule="evenodd"/><path stroke="#000000" stroke-width="1.0" stroke-linejoin="round" stroke-linecap="butt" d="m778.72516 401.98566l0 0c0 -0.8380432 0.6793823 -1.517456 1.517456 -1.517456l22.330566 0c0.40246582 0 0.78845215 0.15988159 1.072998 0.444458c0.28460693 0.28457642 0.444458 0.67056274 0.444458 1.072998l0 6.0696106c0 0.83807373 -0.6793823 1.517456 -1.517456 1.517456l-22.330566 0c-0.83807373 0 -1.517456 -0.6793823 -1.517456 -1.517456z" fill-rule="evenodd"/><path fill="#ff9900" d="m778.72516 439.5585l0 0c0 -0.8380432 0.6793823 -1.5174255 1.517456 -1.5174255l22.330566 0c0.40246582 0 0.78845215 0.15985107 1.072998 0.4444275c0.28460693 0.28457642 0.444458 0.67056274 0.444458 1.072998l0 6.069641c0 0.8380432 -0.6793823 1.5174255 -1.517456 1.5174255l-22.330566 0c-0.83807373 0 -1.517456 -0.6793823 -1.517456 -1.5174255z" fill-rule="evenodd"/><path stroke="#000000" stroke-width="1.0" stroke-linejoin="round" stroke-linecap="butt" d="m778.72516 439.5585l0 0c0 -0.8380432 0.6793823 -1.5174255 1.517456 -1.5174255l22.330566 0c0.40246582 0 0.78845215 0.15985107 1.072998 0.4444275c0.28460693 0.28457642 0.444458 0.67056274 0.444458 1.072998l0 6.069641c0 0.8380432 -0.6793823 1.5174255 -1.517456 1.5174255l-22.330566 0c-0.83807373 0 -1.517456 -0.6793823 -1.517456 -1.5174255z" fill-rule="evenodd"/><path fill="#ff9900" d="m794.7664 420.7721l0 0c0 -0.83807373 0.6793823 -1.517456 1.517395 -1.517456l22.330627 0c0.4024048 0 0.7883911 0.15988159 1.072998 0.444458c0.2845459 0.28457642 0.444458 0.6705322 0.444458 1.072998l0 6.0696106c0 0.83807373 -0.67944336 1.517456 -1.517456 1.517456l-22.330627 0c-0.8380127 0 -1.517395 -0.6793823 -1.517395 -1.517456z" fill-rule="evenodd"/><path stroke="#000000" stroke-width="1.0" stroke-linejoin="round" stroke-linecap="butt" d="m794.7664 420.7721l0 0c0 -0.83807373 0.6793823 -1.517456 1.517395 -1.517456l22.330627 0c0.4024048 0 0.7883911 0.15988159 1.072998 0.444458c0.2845459 0.28457642 0.444458 0.6705322 0.444458 1.072998l0 6.0696106c0 0.83807373 -0.67944336 1.517456 -1.517456 1.517456l-22.330627 0c-0.8380127 0 -1.517395 -0.6793823 -1.517395 -1.517456z" fill-rule="evenodd"/><path fill="#ff9900" d="m762.68396 420.7721l0 0c0 -0.83807373 0.6793823 -1.517456 1.517456 -1.517456l22.330566 0c0.4024048 0 0.7883911 0.15988159 1.072998 0.444458c0.2845459 0.28457642 0.444458 0.6705322 0.444458 1.072998l0 6.0696106c0 0.83807373 -0.6793823 1.517456 -1.517456 1.517456l-22.330566 0c-0.83807373 0 -1.517456 -0.6793823 -1.517456 -1.517456z" fill-rule="evenodd"/><path stroke="#000000" stroke-width="1.0" stroke-linejoin="round" stroke-linecap="butt" d="m762.68396 420.7721l0 0c0 -0.83807373 0.6793823 -1.517456 1.517456 -1.517456l22.330566 0c0.4024048 0 0.7883911 0.15988159 1.072998 0.444458c0.2845459 0.28457642 0.444458 0.6705322 0.444458 1.072998l0 6.0696106c0 0.83807373 -0.6793823 1.517456 -1.517456 1.517456l-22.330566 0c-0.83807373 0 -1.517456 -0.6793823 -1.517456 -1.517456z" fill-rule="evenodd"/><path fill="#000000" fill-opacity="0.0" d="m791.4079 409.57272c0 2.4204712 -4.008484 3.6322021 -8.017029 4.8409424c-4.008484 1.2087402 -8.017029 2.4144897 -8.017029 4.8289795" fill-rule="evenodd"/><path stroke="#000000" stroke-width="4.0" stroke-linejoin="round" stroke-linecap="butt" d="m791.4079 409.57272c0 2.4204712 -4.008484 3.6322021 -8.017029 4.8409424c-4.008484 1.2087402 -8.017029 2.4144897 -8.017029 4.8289795" fill-rule="evenodd"/><path fill="#000000" fill-opacity="0.0" d="m791.4079 409.57272c0 2.4204712 4.008545 3.6322021 8.017029 4.8409424c4.008484 1.2087402 8.017029 2.4144897 8.017029 4.8289795" fill-rule="evenodd"/><path stroke="#000000" stroke-width="4.0" stroke-linejoin="round" stroke-linecap="butt" d="m791.4079 409.57272c0 2.4204712 4.008545 3.6322021 8.017029 4.8409424c4.008484 1.2087402 8.017029 2.4144897 8.017029 4.8289795" fill-rule="evenodd"/><path fill="#000000" fill-opacity="0.0" d="m775.3667 428.35916c0 2.4204712 4.008484 3.6322021 8.017029 4.8409424c4.008484 1.2087402 8.016968 2.4144897 8.016968 4.828949" fill-rule="evenodd"/><path stroke="#000000" stroke-width="4.0" stroke-linejoin="round" stroke-linecap="butt" d="m775.3667 428.35916c0 2.4204712 4.008484 3.6322021 8.017029 4.8409424c4.008484 1.2087402 8.016968 2.4144897 8.016968 4.828949" fill-rule="evenodd"/><path fill="#000000" fill-opacity="0.0" d="m807.44916 428.35916c0 2.4204712 -4.008545 3.6322021 -8.017029 4.8409424c-4.008545 1.2087402 -8.017029 2.4144897 -8.017029 4.828949" fill-rule="evenodd"/><path stroke="#000000" stroke-width="4.0" stroke-linejoin="round" stroke-linecap="butt" d="m807.44916 428.35916c0 2.4204712 -4.008545 3.6322021 -8.017029 4.8409424c-4.008545 1.2087402 -8.017029 2.4144897 -8.017029 4.828949" fill-rule="evenodd"/><path fill="#000000" fill-opacity="0.0" d="m695.29083 133.07985c0 27.67891 24.014343 41.520035 48.028687 55.35782c24.014404 13.837799 48.028748 27.672272 48.028748 55.344543" fill-rule="evenodd"/><path stroke="#000000" stroke-width="4.0" stroke-linejoin="round" stroke-linecap="butt" d="m695.29083 133.07985c0 27.67891 24.014343 41.520035 48.028687 55.35782c24.014404 13.837799 48.028748 27.672272 48.028748 55.344543" fill-rule="evenodd"/><path fill="#000000" fill-opacity="0.0" d="m791.3529 312.87317c0 19.099274 0.013793945 28.646973 0.027648926 38.198517c0.013793945 9.551544 0.027648926 19.106903 0.027648926 38.213806" fill-rule="evenodd"/><path stroke="#000000" stroke-width="4.0" stroke-linejoin="round" stroke-linecap="butt" d="m791.3529 312.87317c0 19.099274 0.013793945 28.646973 0.027648926 38.198517c0.013793945 9.551544 0.027648926 19.106903 0.027648926 38.213806" fill-rule="evenodd"/><path fill="#4a86e8" d="m632.1926 546.2582l0 0c0 -6.3585815 5.154663 -11.513245 11.513245 -11.513245l103.16986 0c3.0535278 0 5.9819336 1.2130127 8.141113 3.3721313c2.1591797 2.1591797 3.3721924 5.0876465 3.3721924 8.141113l0 46.051758c0 6.3585815 -5.154724 11.513245 -11.513306 11.513245l-103.16986 0c-6.3585815 0 -11.513245 -5.154663 -11.513245 -11.513245z" fill-rule="evenodd"/><path stroke="#000000" stroke-width="1.0" stroke-linejoin="round" stroke-linecap="butt" d="m632.1926 546.2582l0 0c0 -6.3585815 5.154663 -11.513245 11.513245 -11.513245l103.16986 0c3.0535278 0 5.9819336 1.2130127 8.141113 3.3721313c2.1591797 2.1591797 3.3721924 5.0876465 3.3721924 8.141113l0 46.051758c0 6.3585815 -5.154724 11.513245 -11.513306 11.513245l-103.16986 0c-6.3585815 0 -11.513245 -5.154663 -11.513245 -11.513245z" fill-rule="evenodd"/><path fill="#000000" fill-opacity="0.0" d="m791.38055 458.34875c0 19.098877 -24.021301 28.64621 -48.042603 38.197754c-24.02124 9.551544 -48.04254 19.1073 -48.04254 38.21454" fill-rule="evenodd"/><path stroke="#000000" stroke-width="4.0" stroke-linejoin="round" stroke-linecap="butt" d="m791.38055 458.34875c0 19.098877 -24.021301 28.64621 -48.042603 38.197754c-24.02124 9.551544 -48.04254 19.1073 -48.04254 38.21454" fill-rule="evenodd"/><path fill="#000000" fill-opacity="0.0" d="m695.29083 534.74493c0 -55.467438 -30.208069 -83.20392 -60.416138 -110.934875c-30.208069 -27.730927 -60.416077 -55.45633 -60.416077 -110.91266" fill-rule="evenodd"/><path stroke="#000000" stroke-width="4.0" stroke-linejoin="round" stroke-linecap="butt" d="m695.29083 534.74493c0 -55.467438 -30.208069 -83.20392 -60.416138 -110.934875c-30.208069 -27.730927 -60.416077 -55.45633 -60.416077 -110.91266" fill-rule="evenodd"/><path fill="#000000" fill-opacity="0.0" d="m611.64044 7.992126l142.58264 0l0 33.133858l-142.58264 0z" fill-rule="evenodd"/><path fill="#000000" d="m627.4373 23.639l4.859375 13.75l4.84375 -13.75l5.125 0l0 18.953125l-3.90625 0l0 -5.1875l0.390625 -8.9375l-5.125 14.125l-2.671875 0l-5.109375 -14.109375l0.390625 8.921875l0 5.1875l-3.90625 0l0 -18.953125l5.109375 0zm17.41272 11.78125q0 -2.09375 0.796875 -3.734375q0.8125 -1.640625 2.328125 -2.53125q1.515625 -0.90625 3.53125 -0.90625q2.84375 0 4.640625 1.75q1.8125 1.734375 2.015625 4.734375l0.03125 0.96875q0 3.234375 -1.8125 5.203125q-1.8125 1.953125 -4.859375 1.953125q-3.046875 0 -4.859375 -1.953125q-1.8125 -1.953125 -1.8125 -5.3125l0 -0.171875zm3.765625 0.28125q0 2.0 0.75 3.0625q0.75 1.0625 2.15625 1.0625q1.375 0 2.140625 -1.046875q0.765625 -1.0625 0.765625 -3.359375q0 -1.96875 -0.765625 -3.046875q-0.765625 -1.078125 -2.15625 -1.078125q-1.390625 0 -2.140625 1.078125q-0.75 1.0625 -0.75 3.328125zm11.306641 -0.25q0 -3.296875 1.46875 -5.25q1.484375 -1.953125 4.046875 -1.953125q2.0625 0 3.40625 1.53125l0 -7.1875l3.765625 0l0 20.0l-3.390625 0l-0.1875 -1.5q-1.40625 1.765625 -3.609375 1.765625q-2.5 0 -4.0 -1.953125q-1.5 -1.96875 -1.5 -5.453125zm3.765625 0.265625q0 1.984375 0.6875 3.046875q0.6875 1.046875 2.0 1.046875q1.75 0 2.46875 -1.46875l0 -5.5625q-0.703125 -1.46875 -2.4375 -1.46875q-2.71875 0 -2.71875 4.40625zm20.270142 5.4375q-1.390625 1.703125 -3.84375 1.703125q-2.265625 0 -3.46875 -1.296875q-1.1875 -1.3125 -1.203125 -3.828125l0 -9.21875l3.75 0l0 9.09375q0 2.203125 2.015625 2.203125q1.90625 0 2.625 -1.328125l0 -9.96875l3.765625 0l0 14.078125l-3.53125 0l-0.109375 -1.4375zm10.462952 1.4375l-3.78125 0l0 -20.0l3.78125 0l0 20.0zm9.567505 0.265625q-3.09375 0 -5.046875 -1.90625q-1.9375 -1.90625 -1.9375 -5.0625l0 -0.359375q0 -2.125 0.8125 -3.796875q0.828125 -1.671875 2.328125 -2.578125q1.5 -0.90625 3.4375 -0.90625q2.890625 0 4.546875 1.828125q1.65625 1.8125 1.65625 5.15625l0 1.546875l-8.96875 0q0.1875 1.375 1.09375 2.21875q0.921875 0.828125 2.328125 0.828125q2.171875 0 3.40625 -1.578125l1.84375 2.0625q-0.84375 1.203125 -2.296875 1.875q-1.4375 0.671875 -3.203125 0.671875zm-0.421875 -11.5625q-1.125 0 -1.828125 0.765625q-0.6875 0.75 -0.875 2.15625l5.21875 0l0 -0.3125q-0.015625 -1.25 -0.671875 -1.921875q-0.65625 -0.6875 -1.84375 -0.6875zm15.234009 11.296875l0 -18.953125l6.640625 0q3.453125 0 5.234375 1.328125q1.78125 1.3125 1.78125 3.875q0 1.390625 -0.71875 2.453125q-0.71875 1.046875 -1.984375 1.546875q1.453125 0.359375 2.296875 1.46875q0.84375 1.109375 0.84375 2.703125q0 2.734375 -1.75 4.140625q-1.75 1.40625 -4.96875 1.4375l-7.375 0zm3.90625 -8.25l0 5.109375l3.34375 0q1.390625 0 2.15625 -0.65625q0.78125 -0.65625 0.78125 -1.8125q0 -2.609375 -2.703125 -2.640625l-3.578125 0zm0 -2.765625l2.890625 0q2.953125 -0.046875 2.953125 -2.34375q0 -1.296875 -0.75 -1.859375q-0.75 -0.5625 -2.359375 -0.5625l-2.734375 0l0 4.765625z" fill-rule="nonzero"/><path fill="#000000" fill-opacity="0.0" d="m142.09317 7.992126l142.58267 0l0 33.133858l-142.58267 0z" fill-rule="evenodd"/><path fill="#000000" d="m157.89005 23.639l4.859375 13.75l4.84375 -13.75l5.125 0l0 18.953125l-3.90625 0l0 -5.1875l0.390625 -8.9375l-5.125 14.125l-2.671875 0l-5.109375 -14.109375l0.390625 8.921875l0 5.1875l-3.90625 0l0 -18.953125l5.109375 0zm17.41275 11.78125q0 -2.09375 0.796875 -3.734375q0.8125 -1.640625 2.328125 -2.53125q1.515625 -0.90625 3.53125 -0.90625q2.84375 0 4.640625 1.75q1.8125 1.734375 2.015625 4.734375l0.03125 0.96875q0 3.234375 -1.8125 5.203125q-1.8125 1.953125 -4.859375 1.953125q-3.046875 0 -4.859375 -1.953125q-1.8125 -1.953125 -1.8125 -5.3125l0 -0.171875zm3.765625 0.28125q0 2.0 0.75 3.0625q0.75 1.0625 2.15625 1.0625q1.375 0 2.140625 -1.046875q0.765625 -1.0625 0.765625 -3.359375q0 -1.96875 -0.765625 -3.046875q-0.765625 -1.078125 -2.15625 -1.078125q-1.390625 0 -2.140625 1.078125q-0.75 1.0625 -0.75 3.328125zm11.30661 -0.25q0 -3.296875 1.46875 -5.25q1.484375 -1.953125 4.046875 -1.953125q2.0625 0 3.40625 1.53125l0 -7.1875l3.765625 0l0 20.0l-3.390625 0l-0.1875 -1.5q-1.40625 1.765625 -3.609375 1.765625q-2.5 0 -4.0 -1.953125q-1.5 -1.96875 -1.5 -5.453125zm3.765625 0.265625q0 1.984375 0.6875 3.046875q0.6875 1.046875 2.0 1.046875q1.75 0 2.46875 -1.46875l0 -5.5625q-0.703125 -1.46875 -2.4375 -1.46875q-2.71875 0 -2.71875 4.40625zm20.270172 5.4375q-1.390625 1.703125 -3.84375 1.703125q-2.265625 0 -3.46875 -1.296875q-1.1875 -1.3125 -1.203125 -3.828125l0 -9.21875l3.75 0l0 9.09375q0 2.203125 2.015625 2.203125q1.90625 0 2.625 -1.328125l0 -9.96875l3.765625 0l0 14.078125l-3.53125 0l-0.109375 -1.4375zm10.462921 1.4375l-3.78125 0l0 -20.0l3.78125 0l0 20.0zm9.567551 0.265625q-3.09375 0 -5.046875 -1.90625q-1.9375 -1.90625 -1.9375 -5.0625l0 -0.359375q0 -2.125 0.8125 -3.796875q0.828125 -1.671875 2.328125 -2.578125q1.5 -0.90625 3.4375 -0.90625q2.890625 0 4.546875 1.828125q1.65625 1.8125 1.65625 5.15625l0 1.546875l-8.96875 0q0.1875 1.375 1.09375 2.21875q0.921875 0.828125 2.328125 0.828125q2.171875 0 3.40625 -1.578125l1.84375 2.0625q-0.84375 1.203125 -2.296875 1.875q-1.4375 0.671875 -3.203125 0.671875zm-0.421875 -11.5625q-1.125 0 -1.828125 0.765625q-0.6875 0.75 -0.875 2.15625l5.21875 0l0 -0.3125q-0.015625 -1.25 -0.671875 -1.921875q-0.65625 -0.6875 -1.84375 -0.6875zm25.937088 7.390625l-6.84375 0l-1.296875 3.90625l-4.15625 0l7.046875 -18.953125l3.625 0l7.09375 18.953125l-4.15625 0l-1.3125 -3.90625zm-5.796875 -3.15625l4.75 0l-2.390625 -7.09375l-2.359375 7.09375z" fill-rule="nonzero"/></g></svg>