<svg version="1.1" viewBox="0.0 0.0 458.29396325459317 645.0524934383202" fill="none" stroke="none" stroke-linecap="square" stroke-miterlimit="10" xmlns:xlink="http://www.w3.org/1999/xlink" xmlns="http://www.w3.org/2000/svg"><clipPath id="p.0"><path d="m0 0l458.29398 0l0 645.0525l-458.29398 0l0 -645.0525z" clip-rule="nonzero"/></clipPath><g clip-path="url(#p.0)"><path fill="#000000" fill-opacity="0.0" d="m0 0l458.29398 0l0 645.0525l-458.29398 0z" fill-rule="evenodd"/><path fill="#000000" fill-opacity="0.0" d="m6.141732 80.068405l0 0c0 -40.829296 33.09869 -73.927986 73.927986 -73.927986l295.70306 0l0 0c19.606934 0 38.410797 7.7888193 52.274994 21.653008c13.864166 13.864185 21.652985 32.66806 21.652985 52.27498l0 481.2149c0 40.829285 -33.098663 73.92798 -73.92798 73.92798l-295.70306 0c-40.829296 0 -73.927986 -33.098694 -73.927986 -73.92798z" fill-rule="evenodd"/><path stroke="#000000" stroke-width="4.0" stroke-linejoin="round" stroke-linecap="butt" stroke-dasharray="16.0,12.0" d="m6.141732 80.068405l0 0c0 -40.829296 33.09869 -73.927986 73.927986 -73.927986l295.70306 0l0 0c19.606934 0 38.410797 7.7888193 52.274994 21.653008c13.864166 13.864185 21.652985 32.66806 21.652985 52.27498l0 481.2149c0 40.829285 -33.098663 73.92798 -73.92798 73.92798l-295.70306 0c-40.829296 0 -73.927986 -33.098694 -73.927986 -73.92798z" fill-rule="evenodd"/><path fill="#4a86e8" d="m164.82516 63.12903l0 0c0 -6.3586082 5.154663 -11.513275 11.513275 -11.513275l103.16983 0c3.0535278 0 5.981964 1.2130013 8.141113 3.372158c2.1591797 2.1591606 3.3721619 5.0876045 3.3721619 8.141117l0 46.05172c0 6.358612 -5.154663 11.513275 -11.513275 11.513275l-103.16983 0c-6.358612 0 -11.513275 -5.154663 -11.513275 -11.513275z" fill-rule="evenodd"/><path stroke="#000000" stroke-width="1.0" stroke-linejoin="round" stroke-linecap="butt" d="m164.82516 63.12903l0 0c0 -6.3586082 5.154663 -11.513275 11.513275 -11.513275l103.16983 0c3.0535278 0 5.981964 1.2130013 8.141113 3.372158c2.1591797 2.1591606 3.3721619 5.0876045 3.3721619 8.141117l0 46.05172c0 6.358612 -5.154663 11.513275 -11.513275 11.513275l-103.16983 0c-6.358612 0 -11.513275 -5.154663 -11.513275 -11.513275z" fill-rule="evenodd"/><path fill="#4a86e8" d="m260.88724 242.92235l0 0c0 -6.358612 5.154663 -11.513275 11.513275 -11.513275l103.16983 0c3.0535278 0 5.981964 1.2129974 8.141144 3.3721619c2.1591492 2.1591492 3.3721619 5.0876007 3.3721619 8.141113l0 46.051712c0 6.358612 -5.1546936 11.513275 -11.513306 11.513275l-103.16983 0c-6.358612 0 -11.513275 -5.154663 -11.513275 -11.513275z" fill-rule="evenodd"/><path stroke="#000000" stroke-width="1.0" stroke-linejoin="round" stroke-linecap="butt" d="m260.88724 242.92235l0 0c0 -6.358612 5.154663 -11.513275 11.513275 -11.513275l103.16983 0c3.0535278 0 5.981964 1.2129974 8.141144 3.3721619c2.1591492 2.1591492 3.3721619 5.0876007 3.3721619 8.141113l0 46.051712c0 6.358612 -5.1546936 11.513275 -11.513306 11.513275l-103.16983 0c-6.358612 0 -11.513275 -5.154663 -11.513275 -11.513275z" fill-rule="evenodd"/><path fill="#000000" fill-opacity="0.0" d="m227.92336 120.69402c0 22.489098 -30.992126 33.734077 -61.984253 44.978172c-30.992126 11.244095 -61.984245 22.48729 -61.984245 44.97458" fill-rule="evenodd"/><path stroke="#000000" stroke-width="4.0" stroke-linejoin="round" stroke-linecap="butt" d="m227.92336 120.69402c0 22.489098 -30.992126 33.734077 -61.984253 44.978172c-30.992126 11.244095 -61.984245 22.48729 -61.984245 44.97458" fill-rule="evenodd"/><path fill="#ff9900" d="m297.1046 344.4617l0 0c0 -1.9856567 1.6096802 -3.5953674 3.5953674 -3.5953674l46.571045 0c0.9535217 0 1.868042 0.3788147 2.5422974 1.0530701c0.6742554 0.6742554 1.0530396 1.5887451 1.0530396 2.5422974l0 14.381012c0 1.9856567 -1.6096802 3.5953674 -3.595337 3.5953674l-46.571045 0l0 0c-1.9856873 0 -3.5953674 -1.6097107 -3.5953674 -3.5953674z" fill-rule="evenodd"/><path stroke="#000000" stroke-width="1.0" stroke-linejoin="round" stroke-linecap="butt" d="m297.1046 344.4617l0 0c0 -1.9856567 1.6096802 -3.5953674 3.5953674 -3.5953674l46.571045 0c0.9535217 0 1.868042 0.3788147 2.5422974 1.0530701c0.6742554 0.6742554 1.0530396 1.5887451 1.0530396 2.5422974l0 14.381012c0 1.9856567 -1.6096802 3.5953674 -3.595337 3.5953674l-46.571045 0l0 0c-1.9856873 0 -3.5953674 -1.6097107 -3.5953674 -3.5953674z" fill-rule="evenodd"/><path fill="#ff9900" d="m297.1046 433.48468l0 0c0 -1.9856567 1.6096802 -3.595337 3.5953674 -3.595337l46.571045 0c0.9535217 0 1.868042 0.37878418 2.5422974 1.0530396c0.6742554 0.6742554 1.0530396 1.5887451 1.0530396 2.5422974l0 14.381012c0 1.9856567 -1.6096802 3.5953674 -3.595337 3.5953674l-46.571045 0l0 0c-1.9856873 0 -3.5953674 -1.6097107 -3.5953674 -3.5953674z" fill-rule="evenodd"/><path stroke="#000000" stroke-width="1.0" stroke-linejoin="round" stroke-linecap="butt" d="m297.1046 433.48468l0 0c0 -1.9856567 1.6096802 -3.595337 3.5953674 -3.595337l46.571045 0c0.9535217 0 1.868042 0.37878418 2.5422974 1.0530396c0.6742554 0.6742554 1.0530396 1.5887451 1.0530396 2.5422974l0 14.381012c0 1.9856567 -1.6096802 3.5953674 -3.595337 3.5953674l-46.571045 0l0 0c-1.9856873 0 -3.5953674 -1.6097107 -3.5953674 -3.5953674z" fill-rule="evenodd"/><path fill="#ff9900" d="m331.10376 388.9732l0 0c0 -1.9856873 1.6097107 -3.5953674 3.5953674 -3.5953674l46.571045 0c0.95355225 0 1.868042 0.37878418 2.5422974 1.0530396c0.6742554 0.6742859 1.0530701 1.5887756 1.0530701 2.542328l0 14.381012c0 1.9856567 -1.6097107 3.595337 -3.5953674 3.595337l-46.571045 0l0 0c-1.9856567 0 -3.5953674 -1.6096802 -3.5953674 -3.595337z" fill-rule="evenodd"/><path stroke="#000000" stroke-width="1.0" stroke-linejoin="round" stroke-linecap="butt" d="m331.10376 388.9732l0 0c0 -1.9856873 1.6097107 -3.5953674 3.5953674 -3.5953674l46.571045 0c0.95355225 0 1.868042 0.37878418 2.5422974 1.0530396c0.6742554 0.6742859 1.0530701 1.5887756 1.0530701 2.542328l0 14.381012c0 1.9856567 -1.6097107 3.595337 -3.5953674 3.595337l-46.571045 0l0 0c-1.9856567 0 -3.5953674 -1.6096802 -3.5953674 -3.595337z" fill-rule="evenodd"/><path fill="#ff9900" d="m263.10547 388.9732l0 0c0 -1.9856873 1.6096802 -3.5953674 3.595337 -3.5953674l46.571045 0c0.95355225 0 1.868042 0.37878418 2.542328 1.0530396c0.6742554 0.6742859 1.0530396 1.5887756 1.0530396 2.542328l0 14.381012c0 1.9856567 -1.6096802 3.595337 -3.5953674 3.595337l-46.571045 0l0 0c-1.9856567 0 -3.595337 -1.6096802 -3.595337 -3.595337z" fill-rule="evenodd"/><path stroke="#000000" stroke-width="1.0" stroke-linejoin="round" stroke-linecap="butt" d="m263.10547 388.9732l0 0c0 -1.9856873 1.6096802 -3.5953674 3.595337 -3.5953674l46.571045 0c0.95355225 0 1.868042 0.37878418 2.542328 1.0530396c0.6742554 0.6742859 1.0530396 1.5887756 1.0530396 2.542328l0 14.381012c0 1.9856567 -1.6096802 3.595337 -3.5953674 3.595337l-46.571045 0l0 0c-1.9856567 0 -3.595337 -1.6096802 -3.595337 -3.595337z" fill-rule="evenodd"/><path fill="#000000" fill-opacity="0.0" d="m323.9855 362.43808c0 5.734894 -8.496002 8.603729 -16.991974 11.469788c-8.496002 2.8660889 -16.991974 5.7294006 -16.991974 11.458801" fill-rule="evenodd"/><path stroke="#000000" stroke-width="4.0" stroke-linejoin="round" stroke-linecap="butt" d="m323.9855 362.43808c0 5.734894 -8.496002 8.603729 -16.991974 11.469788c-8.496002 2.8660889 -16.991974 5.7294006 -16.991974 11.458801" fill-rule="evenodd"/><path fill="#000000" fill-opacity="0.0" d="m323.9855 362.43808c0 5.734894 8.495972 8.603729 16.991943 11.469788c8.496002 2.8660889 16.991974 5.7294006 16.991974 11.458801" fill-rule="evenodd"/><path stroke="#000000" stroke-width="4.0" stroke-linejoin="round" stroke-linecap="butt" d="m323.9855 362.43808c0 5.734894 8.495972 8.603729 16.991943 11.469788c8.496002 2.8660889 16.991974 5.7294006 16.991974 11.458801" fill-rule="evenodd"/><path fill="#000000" fill-opacity="0.0" d="m289.98633 406.94955c0 5.7349243 8.496002 8.603729 16.991974 11.469818c8.496002 2.8660583 16.991974 5.7294006 16.991974 11.458801" fill-rule="evenodd"/><path stroke="#000000" stroke-width="4.0" stroke-linejoin="round" stroke-linecap="butt" d="m289.98633 406.94955c0 5.7349243 8.496002 8.603729 16.991974 11.469818c8.496002 2.8660583 16.991974 5.7294006 16.991974 11.458801" fill-rule="evenodd"/><path fill="#000000" fill-opacity="0.0" d="m357.98465 406.94955c0 5.7349243 -8.496002 8.603729 -16.991974 11.469818c-8.495972 2.8660583 -16.991974 5.7294006 -16.991974 11.458801" fill-rule="evenodd"/><path stroke="#000000" stroke-width="4.0" stroke-linejoin="round" stroke-linecap="butt" d="m357.98465 406.94955c0 5.7349243 -8.496002 8.603729 -16.991974 11.469818c-8.495972 2.8660583 -16.991974 5.7294006 -16.991974 11.458801" fill-rule="evenodd"/><path fill="#000000" fill-opacity="0.0" d="m227.92336 120.69402c0 27.680489 24.015747 41.522392 48.03151 55.36097c24.015747 13.838593 48.031494 27.673843 48.031494 55.347687" fill-rule="evenodd"/><path stroke="#000000" stroke-width="4.0" stroke-linejoin="round" stroke-linecap="butt" d="m227.92336 120.69402c0 27.680489 24.015747 41.522392 48.03151 55.36097c24.015747 13.838593 48.031494 27.673843 48.031494 55.347687" fill-rule="evenodd"/><path fill="#000000" fill-opacity="0.0" d="m323.98544 300.48734c0 10.094696 0.01574707 15.142151 0.03149414 20.189392c0.01574707 5.047241 0.03149414 10.094299 0.03149414 20.188568" fill-rule="evenodd"/><path stroke="#000000" stroke-width="4.0" stroke-linejoin="round" stroke-linecap="butt" d="m323.98544 300.48734c0 10.094696 0.01574707 15.142151 0.03149414 20.189392c0.01574707 5.047241 0.03149414 10.094299 0.03149414 20.188568" fill-rule="evenodd"/><path fill="#4a86e8" d="m164.82516 533.8724l0 0c0 -6.3585815 5.154663 -11.513306 11.513275 -11.513306l103.16983 0c3.0535278 0 5.981964 1.2130127 8.141113 3.3721924c2.1591797 2.1591797 3.3721619 5.0875854 3.3721619 8.141113l0 46.051697c0 6.3586426 -5.154663 11.513306 -11.513275 11.513306l-103.16983 0c-6.358612 0 -11.513275 -5.154663 -11.513275 -11.513306z" fill-rule="evenodd"/><path stroke="#000000" stroke-width="1.0" stroke-linejoin="round" stroke-linecap="butt" d="m164.82516 533.8724l0 0c0 -6.3585815 5.154663 -11.513306 11.513275 -11.513306l103.16983 0c3.0535278 0 5.981964 1.2130127 8.141113 3.3721924c2.1591797 2.1591797 3.3721619 5.0875854 3.3721619 8.141113l0 46.051697c0 6.3586426 -5.154663 11.513306 -11.513275 11.513306l-103.16983 0c-6.358612 0 -11.513275 -5.154663 -11.513275 -11.513306z" fill-rule="evenodd"/><path fill="#000000" fill-opacity="0.0" d="m323.9855 451.46106c0 17.724396 -24.015747 26.586609 -48.031494 35.448822c-24.015762 8.862213 -48.03151 17.724396 -48.03151 35.448822" fill-rule="evenodd"/><path stroke="#000000" stroke-width="4.0" stroke-linejoin="round" stroke-linecap="butt" d="m323.9855 451.46106c0 17.724396 -24.015747 26.586609 -48.031494 35.448822c-24.015762 8.862213 -48.03151 17.724396 -48.03151 35.448822" fill-rule="evenodd"/><path fill="#000000" fill-opacity="0.0" d="m227.92336 522.3591c0 -50.278595 -30.992126 -75.4194 -61.984253 -100.55719c-30.992126 -25.137787 -61.984245 -50.272583 -61.984245 -100.545135" fill-rule="evenodd"/><path stroke="#000000" stroke-width="4.0" stroke-linejoin="round" stroke-linecap="butt" d="m227.92336 522.3591c0 -50.278595 -30.992126 -75.4194 -61.984253 -100.55719c-30.992126 -25.137787 -61.984245 -50.272583 -61.984245 -100.545135" fill-rule="evenodd"/><path fill="#ff9900" d="m77.062614 214.24648l0 0c0 -1.9856567 1.6097031 -3.5953674 3.5953598 -3.5953674l46.571045 0c0.95355225 0 1.868042 0.37879944 2.5422974 1.0530701c0.67427063 0.6742554 1.0530701 1.5887451 1.0530701 2.5422974l0 14.381012c0 1.9856567 -1.6097107 3.5953522 -3.5953674 3.5953522l-46.571045 0l0 0c-1.9856567 0 -3.5953598 -1.6096954 -3.5953598 -3.5953522z" fill-rule="evenodd"/><path stroke="#000000" stroke-width="1.0" stroke-linejoin="round" stroke-linecap="butt" d="m77.062614 214.24648l0 0c0 -1.9856567 1.6097031 -3.5953674 3.5953598 -3.5953674l46.571045 0c0.95355225 0 1.868042 0.37879944 2.5422974 1.0530701c0.67427063 0.6742554 1.0530701 1.5887451 1.0530701 2.5422974l0 14.381012c0 1.9856567 -1.6097107 3.5953522 -3.5953674 3.5953522l-46.571045 0l0 0c-1.9856567 0 -3.5953598 -1.6096954 -3.5953598 -3.5953522z" fill-rule="evenodd"/><path fill="#ff9900" d="m77.062614 303.26947l0 0c0 -1.9856567 1.6097031 -3.5953674 3.5953598 -3.5953674l46.571045 0c0.95355225 0 1.868042 0.3788147 2.5422974 1.0530701c0.67427063 0.6742554 1.0530701 1.5887451 1.0530701 2.5422974l0 14.381012c0 1.9856567 -1.6097107 3.5953674 -3.5953674 3.5953674l-46.571045 0l0 0c-1.9856567 0 -3.5953598 -1.6097107 -3.5953598 -3.5953674z" fill-rule="evenodd"/><path stroke="#000000" stroke-width="1.0" stroke-linejoin="round" stroke-linecap="butt" d="m77.062614 303.26947l0 0c0 -1.9856567 1.6097031 -3.5953674 3.5953598 -3.5953674l46.571045 0c0.95355225 0 1.868042 0.3788147 2.5422974 1.0530701c0.67427063 0.6742554 1.0530701 1.5887451 1.0530701 2.5422974l0 14.381012c0 1.9856567 -1.6097107 3.5953674 -3.5953674 3.5953674l-46.571045 0l0 0c-1.9856567 0 -3.5953598 -1.6097107 -3.5953598 -3.5953674z" fill-rule="evenodd"/><path fill="#ff9900" d="m111.06177 258.75797l0 0c0 -1.9856567 1.6096954 -3.5953522 3.5953598 -3.5953522l46.571037 0c0.95355225 0 1.8680573 0.37879944 2.5423126 1.0530548c0.6742554 0.6742554 1.0530548 1.5887451 1.0530548 2.5422974l0 14.381012c0 1.9856567 -1.6096954 3.5953674 -3.5953674 3.5953674l-46.571037 0l0 0c-1.9856644 0 -3.5953598 -1.6097107 -3.5953598 -3.5953674z" fill-rule="evenodd"/><path stroke="#000000" stroke-width="1.0" stroke-linejoin="round" stroke-linecap="butt" d="m111.06177 258.75797l0 0c0 -1.9856567 1.6096954 -3.5953522 3.5953598 -3.5953522l46.571037 0c0.95355225 0 1.8680573 0.37879944 2.5423126 1.0530548c0.6742554 0.6742554 1.0530548 1.5887451 1.0530548 2.5422974l0 14.381012c0 1.9856567 -1.6096954 3.5953674 -3.5953674 3.5953674l-46.571037 0l0 0c-1.9856644 0 -3.5953598 -1.6097107 -3.5953598 -3.5953674z" fill-rule="evenodd"/><path fill="#ff9900" d="m43.063465 258.75797l0 0c0 -1.9856567 1.6096954 -3.5953522 3.5953598 -3.5953522l46.57104 0c0.95355225 0 1.868042 0.37879944 2.542305 1.0530548c0.674263 0.6742554 1.0530548 1.5887451 1.0530548 2.5422974l0 14.381012c0 1.9856567 -1.6096954 3.5953674 -3.5953598 3.5953674l-46.57104 0l0 0c-1.9856644 0 -3.5953598 -1.6097107 -3.5953598 -3.5953674z" fill-rule="evenodd"/><path stroke="#000000" stroke-width="1.0" stroke-linejoin="round" stroke-linecap="butt" d="m43.063465 258.75797l0 0c0 -1.9856567 1.6096954 -3.5953522 3.5953598 -3.5953522l46.57104 0c0.95355225 0 1.868042 0.37879944 2.542305 1.0530548c0.674263 0.6742554 1.0530548 1.5887451 1.0530548 2.5422974l0 14.381012c0 1.9856567 -1.6096954 3.5953674 -3.5953598 3.5953674l-46.57104 0l0 0c-1.9856644 0 -3.5953598 -1.6097107 -3.5953598 -3.5953674z" fill-rule="evenodd"/><path fill="#000000" fill-opacity="0.0" d="m103.9435 232.22284c0 5.734909 -8.495979 8.603729 -16.991966 11.469803c-8.495987 2.8660889 -16.991966 5.7294006 -16.991966 11.458801" fill-rule="evenodd"/><path stroke="#000000" stroke-width="4.0" stroke-linejoin="round" stroke-linecap="butt" d="m103.9435 232.22284c0 5.734909 -8.495979 8.603729 -16.991966 11.469803c-8.495987 2.8660889 -16.991966 5.7294006 -16.991966 11.458801" fill-rule="evenodd"/><path fill="#000000" fill-opacity="0.0" d="m103.9435 232.22284c0 5.734909 8.495987 8.603729 16.991966 11.469803c8.495995 2.8660889 16.991966 5.7294006 16.991966 11.458801" fill-rule="evenodd"/><path stroke="#000000" stroke-width="4.0" stroke-linejoin="round" stroke-linecap="butt" d="m103.9435 232.22284c0 5.734909 8.495987 8.603729 16.991966 11.469803c8.495995 2.8660889 16.991966 5.7294006 16.991966 11.458801" fill-rule="evenodd"/><path fill="#000000" fill-opacity="0.0" d="m69.94434 276.73434c0 5.734894 8.495987 8.603729 16.991974 11.469788c8.495979 2.8660889 16.991966 5.7294006 16.991966 11.458801" fill-rule="evenodd"/><path stroke="#000000" stroke-width="4.0" stroke-linejoin="round" stroke-linecap="butt" d="m69.94434 276.73434c0 5.734894 8.495987 8.603729 16.991974 11.469788c8.495979 2.8660889 16.991966 5.7294006 16.991966 11.458801" fill-rule="evenodd"/><path fill="#000000" fill-opacity="0.0" d="m137.94266 276.73434c0 5.734894 -8.495987 8.603729 -16.991974 11.469788c-8.495987 2.8660889 -16.991974 5.7294006 -16.991974 11.458801" fill-rule="evenodd"/><path stroke="#000000" stroke-width="4.0" stroke-linejoin="round" stroke-linecap="butt" d="m137.94266 276.73434c0 5.734894 -8.495987 8.603729 -16.991974 11.469788c-8.495987 2.8660889 -16.991974 5.7294006 -16.991974 11.458801" fill-rule="evenodd"/></g></svg>