<svg version="1.1" viewBox="0.0 0.0 778.9763779527559 648.7375328083989" fill="none" stroke="none" stroke-linecap="square" stroke-miterlimit="10" xmlns:xlink="http://www.w3.org/1999/xlink" xmlns="http://www.w3.org/2000/svg"><clipPath id="p.0"><path d="m0 0l778.9764 0l0 648.73755l-778.9764 0l0 -648.73755z" clip-rule="nonzero"/></clipPath><g clip-path="url(#p.0)"><path fill="#000000" fill-opacity="0.0" d="m0 0l778.9764 0l0 648.73755l-778.9764 0z" fill-rule="evenodd"/><path fill="#000000" fill-opacity="0.0" d="m13.51706 251.87796l291.1811 0l0 149.88977l-291.1811 0z" fill-rule="evenodd"/><path stroke="#000000" stroke-width="2.0" stroke-linejoin="round" stroke-linecap="butt" d="m13.51706 251.87796l291.1811 0l0 149.88977l-291.1811 0z" fill-rule="evenodd"/><path fill="#000000" fill-opacity="0.0" d="m7.3727036 242.04855l314.51968 0l0 138.83466l-314.51968 0z" fill-rule="evenodd"/><path fill="#000000" d="m31.778954 274.08856l-3.515625 0l-6.84375 -11.234375l0 11.234375l-3.515625 0l0 -17.0625l3.515625 0l6.84375 11.25l0 -11.25l3.515625 0l0 17.0625zm10.1953125 0q-0.234375 -0.453125 -0.34375 -1.140625q-1.234375 1.375 -3.203125 1.375q-1.859375 0 -3.09375 -1.078125q-1.21875 -1.078125 -1.21875 -2.71875q0 -2.015625 1.484375 -3.09375q1.5 -1.078125 4.328125 -1.09375l1.5625 0l0 -0.71875q0 -0.890625 -0.453125 -1.40625q-0.453125 -0.53125 -1.421875 -0.53125q-0.859375 0 -1.34375 0.40625q-0.484375 0.40625 -0.484375 1.125l-3.390625 0q0 -1.09375 0.671875 -2.03125q0.6875 -0.9375 1.921875 -1.46875q1.25 -0.546875 2.796875 -0.546875q2.34375 0 3.71875 1.1875q1.375 1.171875 1.375 3.3125l0 5.484375q0.015625 1.8125 0.515625 2.734375l0 0.203125l-3.421875 0zm-2.8125 -2.359375q0.75 0 1.375 -0.328125q0.640625 -0.34375 0.953125 -0.90625l0 -2.171875l-1.265625 0q-2.546875 0 -2.703125 1.75l-0.015625 0.203125q0 0.640625 0.4375 1.046875q0.453125 0.40625 1.21875 0.40625zm11.5078125 -10.328125l0.09375 1.421875q1.359375 -1.65625 3.65625 -1.65625q2.4375 0 3.359375 1.9375q1.328125 -1.9375 3.8125 -1.9375q2.0625 0 3.0625 1.203125q1.015625 1.203125 1.015625 3.625l0 8.09375l-3.40625 0l0 -8.09375q0 -1.078125 -0.421875 -1.5625q-0.421875 -0.5 -1.484375 -0.5q-1.53125 0 -2.109375 1.453125l0.015625 8.703125l-3.390625 0l0 -8.078125q0 -1.09375 -0.4375 -1.578125q-0.4375 -0.5 -1.46875 -0.5q-1.453125 0 -2.09375 1.1875l0 8.96875l-3.390625 0l0 -12.6875l3.1875 0zm23.433594 12.921875q-2.796875 0 -4.546875 -1.703125q-1.75 -1.71875 -1.75 -4.5625l0 -0.328125q0 -1.921875 0.734375 -3.421875q0.75 -1.5 2.09375 -2.3125q1.359375 -0.828125 3.09375 -0.828125q2.59375 0 4.09375 1.640625q1.5 1.640625 1.5 4.65625l0 1.390625l-8.078125 0q0.15625 1.234375 0.984375 1.984375q0.828125 0.75 2.09375 0.75q1.953125 0 3.0625 -1.421875l1.65625 1.875q-0.75 1.078125 -2.0625 1.6875q-1.296875 0.59375 -2.875 0.59375zm-0.390625 -10.40625q-1.0 0 -1.640625 0.6875q-0.625 0.671875 -0.796875 1.9375l4.71875 0l0 -0.265625q-0.03125 -1.125 -0.625 -1.734375q-0.578125 -0.625 -1.65625 -0.625zm7.7070312 8.5q0 -0.796875 0.53125 -1.296875q0.546875 -0.515625 1.375 -0.515625q0.828125 0 1.375 0.515625q0.546875 0.5 0.546875 1.296875q0 0.796875 -0.546875 1.296875q-0.53125 0.5 -1.375 0.5q-0.828125 0 -1.375 -0.5q-0.53125 -0.5 -0.53125 -1.296875zm0 -10.0q0 -0.796875 0.53125 -1.296875q0.546875 -0.515625 1.375 -0.515625q0.828125 0 1.375 0.515625q0.546875 0.5 0.546875 1.296875q0 0.796875 -0.546875 1.296875q-0.53125 0.5 -1.375 0.5q-0.828125 0 -1.375 -0.5q-0.53125 -0.5 -0.53125 -1.296875zm47.27343 -5.390625l4.375 12.375l4.359375 -12.375l4.625 0l0 17.0625l-3.53125 0l0 -4.671875l0.34375 -8.046875l-4.59375 12.71875l-2.421875 0l-4.5937424 -12.703125l0.359375 8.03125l0 4.671875l-3.515625 0l0 -17.0625l4.5937424 0zm15.6796875 10.609375q0 -1.890625 0.71875 -3.359375q0.734375 -1.484375 2.09375 -2.296875q1.359375 -0.8125 3.171875 -0.8125q2.5625 0 4.1875 1.578125q1.625 1.5625 1.8125 4.265625l0.015625 0.859375q0 2.921875 -1.625 4.6875q-1.625 1.765625 -4.375 1.765625q-2.734375 0 -4.375 -1.75q-1.625 -1.765625 -1.625 -4.796875l0 -0.140625zm3.375 0.234375q0 1.8125 0.671875 2.765625q0.6875 0.953125 1.953125 0.953125q1.234375 0 1.921875 -0.9375q0.703125 -0.953125 0.703125 -3.015625q0 -1.78125 -0.703125 -2.75q-0.6875 -0.96875 -1.9375 -0.96875q-1.25 0 -1.9375 0.96875q-0.671875 0.96875 -0.671875 2.984375zm10.1953125 -0.21875q0 -2.96875 1.328125 -4.71875q1.328125 -1.765625 3.640625 -1.765625q1.84375 0 3.046875 1.390625l0 -6.46875l3.40625 0l0 18.0l-3.0625 0l-0.15625 -1.34375q-1.265625 1.578125 -3.265625 1.578125q-2.234375 0 -3.59375 -1.765625q-1.34375 -1.765625 -1.34375 -4.90625zm3.375 0.25q0 1.78125 0.625 2.734375q0.625 0.9375 1.8125 0.9375q1.5625 0 2.203125 -1.3125l0 -5.015625q-0.625 -1.3125 -2.1875 -1.3125q-2.453125 0 -2.453125 3.96875zm18.257812 4.890625q-1.25 1.53125 -3.46875 1.53125q-2.03125 0 -3.109375 -1.171875q-1.0625 -1.171875 -1.09375 -3.4375l0 -8.3125l3.390625 0l0 8.203125q0 1.96875 1.796875 1.96875q1.734375 0 2.375 -1.1875l0 -8.984375l3.390625 0l0 12.6875l-3.1875 0l-0.09375 -1.296875zm9.4140625 1.296875l-3.390625 0l0 -18.0l3.390625 0l0 18.0zm8.628906 0.234375q-2.796875 0 -4.546875 -1.703125q-1.75 -1.71875 -1.75 -4.5625l0 -0.328125q0 -1.921875 0.734375 -3.421875q0.75 -1.5 2.09375 -2.3125q1.359375 -0.828125 3.09375 -0.828125q2.59375 0 4.09375 1.640625q1.5 1.640625 1.5 4.65625l0 1.390625l-8.078125 0q0.15625 1.234375 0.984375 1.984375q0.828125 0.75 2.09375 0.75q1.953125 0 3.0625 -1.421875l1.65625 1.875q-0.75 1.078125 -2.0625 1.6875q-1.296875 0.59375 -2.875 0.59375zm-0.390625 -10.40625q-1.0 0 -1.640625 0.6875q-0.625 0.671875 -0.796875 1.9375l4.71875 0l0 -0.265625q-0.03125 -1.125 -0.625 -1.734375q-0.578125 -0.625 -1.65625 -0.625zm13.730469 10.171875l0 -17.0625l5.96875 0q3.109375 0 4.703125 1.1875q1.609375 1.1875 1.609375 3.484375q0 1.25 -0.640625 2.21875q-0.640625 0.953125 -1.796875 1.390625q1.3125 0.328125 2.0625 1.328125q0.765625 1.0 0.765625 2.4375q0 2.453125 -1.578125 3.71875q-1.5625 1.265625 -4.46875 1.296875l-6.625 0zm3.515625 -7.4375l0 4.609375l3.0 0q1.25 0 1.9375 -0.59375q0.703125 -0.59375 0.703125 -1.625q0 -2.34375 -2.421875 -2.390625l-3.21875 0zm0 -2.484375l2.59375 0q2.65625 -0.046875 2.65625 -2.109375q0 -1.171875 -0.671875 -1.671875q-0.671875 -0.515625 -2.125 -0.515625l-2.453125 0l0 4.296875z" fill-rule="nonzero"/><path fill="#000000" d="m21.638329 303.08856l-3.515625 0l0 -17.0625l3.515625 0l0 17.0625zm6.2148438 -12.6875l0.09375 1.421875q1.359375 -1.65625 3.65625 -1.65625q2.4375 0 3.359375 1.9375q1.328125 -1.9375 3.8125 -1.9375q2.0625 0 3.0625 1.203125q1.015625 1.203125 1.015625 3.625l0 8.09375l-3.40625 0l0 -8.09375q0 -1.078125 -0.421875 -1.5625q-0.421875 -0.5 -1.484375 -0.5q-1.53125 0 -2.109375 1.453125l0.015625 8.703125l-3.390625 0l0 -8.078125q0 -1.09375 -0.4375 -1.578125q-0.4375 -0.5 -1.46875 -0.5q-1.453125 0 -2.09375 1.1875l0 8.96875l-3.390625 0l0 -12.6875l3.1875 0zm29.011719 6.46875q0 2.921875 -1.328125 4.6875q-1.328125 1.765625 -3.59375 1.765625q-1.921875 0 -3.109375 -1.34375l0 5.984375l-3.390625 0l0 -17.5625l3.140625 0l0.125 1.25q1.234375 -1.484375 3.203125 -1.484375q2.34375 0 3.640625 1.734375q1.3125 1.734375 1.3125 4.78125l0 0.1875zm-3.390625 -0.25q0 -1.765625 -0.625 -2.71875q-0.625 -0.96875 -1.828125 -0.96875q-1.59375 0 -2.1875 1.21875l0 5.1875q0.625 1.25 2.21875 1.25q2.421875 0 2.421875 -3.96875zm4.9648438 0.015625q0 -1.890625 0.71875 -3.359375q0.734375 -1.484375 2.09375 -2.296875q1.359375 -0.8125 3.171875 -0.8125q2.5625 0 4.1875 1.578125q1.625 1.5625 1.8125 4.265625l0.015625 0.859375q0 2.921875 -1.625 4.6875q-1.625 1.765625 -4.375 1.765625q-2.734375 0 -4.375 -1.75q-1.625 -1.765625 -1.625 -4.796875l0 -0.140625zm3.375 0.234375q0 1.8125 0.671875 2.765625q0.6875 0.953125 1.953125 0.953125q1.234375 0 1.921875 -0.9375q0.703125 -0.953125 0.703125 -3.015625q0 -1.78125 -0.703125 -2.75q-0.6875 -0.96875 -1.9375 -0.96875q-1.25 0 -1.9375 0.96875q-0.671875 0.96875 -0.671875 2.984375zm17.835938 -3.28125q-0.6875 -0.09375 -1.21875 -0.09375q-1.921875 0 -2.515625 1.296875l0 8.296875l-3.390625 0l0 -12.6875l3.203125 0l0.09375 1.515625q1.015625 -1.75 2.828125 -1.75q0.5625 0 1.046875 0.15625l-0.046875 3.265625zm5.6914062 -6.296875l0 3.109375l2.171875 0l0 2.484375l-2.171875 0l0 6.328125q0 0.703125 0.265625 1.015625q0.265625 0.296875 1.03125 0.296875q0.5625 0 1.0 -0.078125l0 2.5625q-1.0 0.3125 -2.046875 0.3125q-3.5625 0 -3.640625 -3.59375l0 -6.84375l-1.84375 0l0 -2.484375l1.84375 0l0 -3.109375l3.390625 0zm10.921875 12.296875q0 -0.625 -0.625 -0.984375q-0.609375 -0.359375 -1.96875 -0.640625q-4.515625 -0.953125 -4.515625 -3.84375q0 -1.6875 1.390625 -2.8125q1.40625 -1.140625 3.671875 -1.140625q2.40625 0 3.84375 1.140625q1.453125 1.140625 1.453125 2.953125l-3.375 0q0 -0.71875 -0.46875 -1.1875q-0.46875 -0.484375 -1.46875 -0.484375q-0.859375 0 -1.328125 0.390625q-0.46875 0.375 -0.46875 0.984375q0 0.5625 0.53125 0.90625q0.53125 0.34375 1.796875 0.59375q1.265625 0.25 2.140625 0.5625q2.6875 0.984375 2.6875 3.421875q0 1.734375 -1.5 2.8125q-1.484375 1.0625 -3.84375 1.0625q-1.59375 0 -2.828125 -0.5625q-1.234375 -0.578125 -1.9375 -1.5625q-0.703125 -1.0 -0.703125 -2.140625l3.21875 0q0.046875 0.90625 0.65625 1.390625q0.625 0.46875 1.671875 0.46875q0.96875 0 1.46875 -0.359375q0.5 -0.375 0.5 -0.96875zm5.6523438 1.828125q0 -0.796875 0.53125 -1.296875q0.546875 -0.515625 1.375 -0.515625q0.828125 0 1.375 0.515625q0.546875 0.5 0.546875 1.296875q0 0.796875 -0.546875 1.296875q-0.53125 0.5 -1.375 0.5q-0.828125 0 -1.375 -0.5q-0.53125 -0.5 -0.53125 -1.296875zm0 -10.0q0 -0.796875 0.53125 -1.296875q0.546875 -0.515625 1.375 -0.515625q0.828125 0 1.375 0.515625q0.546875 0.5 0.546875 1.296875q0 0.796875 -0.546875 1.296875q-0.53125 0.5 -1.375 0.5q-0.828125 0 -1.375 -0.5q-0.53125 -0.5 -0.53125 -1.296875zm29.687492 -5.5625l-1.65625 0l0 18.59375l1.65625 0l0 2.609375l-5.0624924 0l0 -23.828125l5.0624924 0l0 2.625zm6.3242188 0.171875l4.375 12.375l4.359375 -12.375l4.625 0l0 17.0625l-3.53125 0l0 -4.671875l0.34375 -8.046875l-4.59375 12.71875l-2.421875 0l-4.59375 -12.703125l0.359375 8.03125l0 4.671875l-3.515625 0l0 -17.0625l4.59375 0zm15.6796875 10.609375q0 -1.890625 0.71875 -3.359375q0.734375 -1.484375 2.09375 -2.296875q1.359375 -0.8125 3.171875 -0.8125q2.5625 0 4.1875 1.578125q1.625 1.5625 1.8125 4.265625l0.015625 0.859375q0 2.921875 -1.625 4.6875q-1.625 1.765625 -4.375 1.765625q-2.734375 0 -4.375 -1.75q-1.625 -1.765625 -1.625 -4.796875l0 -0.140625zm3.375 0.234375q0 1.8125 0.671875 2.765625q0.6875 0.953125 1.953125 0.953125q1.234375 0 1.921875 -0.9375q0.703125 -0.953125 0.703125 -3.015625q0 -1.78125 -0.703125 -2.75q-0.6875 -0.96875 -1.9375 -0.96875q-1.25 0 -1.9375 0.96875q-0.671875 0.96875 -0.671875 2.984375zm10.1953125 -0.21875q0 -2.96875 1.328125 -4.71875q1.328125 -1.765625 3.640625 -1.765625q1.84375 0 3.046875 1.390625l0 -6.46875l3.40625 0l0 18.0l-3.0625 0l-0.15625 -1.34375q-1.265625 1.578125 -3.265625 1.578125q-2.234375 0 -3.59375 -1.765625q-1.34375 -1.765625 -1.34375 -4.90625zm3.375 0.25q0 1.78125 0.625 2.734375q0.625 0.9375 1.8125 0.9375q1.5625 0 2.203125 -1.3125l0 -5.015625q-0.625 -1.3125 -2.1875 -1.3125q-2.453125 0 -2.453125 3.96875zm18.257812 4.890625q-1.25 1.53125 -3.46875 1.53125q-2.03125 0 -3.109375 -1.171875q-1.0625 -1.171875 -1.09375 -3.4375l0 -8.3125l3.390625 0l0 8.203125q0 1.96875 1.796875 1.96875q1.734375 0 2.375 -1.1875l0 -8.984375l3.390625 0l0 12.6875l-3.1875 0l-0.09375 -1.296875zm9.4140625 1.296875l-3.390625 0l0 -18.0l3.390625 0l0 18.0zm8.628906 0.234375q-2.796875 0 -4.546875 -1.703125q-1.75 -1.71875 -1.75 -4.5625l0 -0.328125q0 -1.921875 0.734375 -3.421875q0.75 -1.5 2.09375 -2.3125q1.359375 -0.828125 3.09375 -0.828125q2.59375 0 4.09375 1.640625q1.5 1.640625 1.5 4.65625l0 1.390625l-8.078125 0q0.15625 1.234375 0.984375 1.984375q0.828125 0.75 2.09375 0.75q1.953125 0 3.0625 -1.421875l1.65625 1.875q-0.75 1.078125 -2.0625 1.6875q-1.296875 0.59375 -2.875 0.59375zm-0.390625 -10.40625q-1.0 0 -1.640625 0.6875q-0.625 0.671875 -0.796875 1.9375l4.71875 0l0 -0.265625q-0.03125 -1.125 -0.625 -1.734375q-0.578125 -0.625 -1.65625 -0.625zm23.355469 6.65625l-6.15625 0l-1.171875 3.515625l-3.75 0l6.359375 -17.0625l3.25 0l6.390625 17.0625l-3.734375 0l-1.1875 -3.515625zm-5.21875 -2.84375l4.265625 0l-2.140625 -6.390625l-2.125 6.390625zm10.3671875 -13.5l5.0625 0l0 23.828125l-5.0625 0l0 -2.609375l1.671875 0l0 -18.59375l-1.671875 0l0 -2.625z" fill-rule="nonzero"/><path fill="#000000" d="m21.638329 332.08856l-3.515625 0l0 -17.0625l3.515625 0l0 17.0625zm6.1523438 -12.6875l0.109375 1.46875q1.359375 -1.703125 3.640625 -1.703125q2.015625 0 3.0 1.1875q0.984375 1.1875 1.0 3.546875l0 8.1875l-3.375 0l0 -8.109375q0 -1.078125 -0.46875 -1.5625q-0.46875 -0.484375 -1.5625 -0.484375q-1.4375 0 -2.140625 1.21875l0 8.9375l-3.390625 0l0 -12.6875l3.1875 0zm21.738281 6.46875q0 2.921875 -1.328125 4.6875q-1.328125 1.765625 -3.59375 1.765625q-1.921875 0 -3.109375 -1.34375l0 5.984375l-3.390625 0l0 -17.5625l3.140625 0l0.125 1.25q1.234375 -1.484375 3.203125 -1.484375q2.34375 0 3.640625 1.734375q1.3125 1.734375 1.3125 4.78125l0 0.1875zm-3.390625 -0.25q0 -1.765625 -0.625 -2.71875q-0.625 -0.96875 -1.828125 -0.96875q-1.59375 0 -2.1875 1.21875l0 5.1875q0.625 1.25 2.21875 1.25q2.421875 0 2.421875 -3.96875zm13.074219 5.171875q-1.25 1.53125 -3.46875 1.53125q-2.03125 0 -3.109375 -1.171875q-1.0625 -1.171875 -1.09375 -3.4375l0 -8.3125l3.390625 0l0 8.203125q0 1.96875 1.796875 1.96875q1.734375 0 2.375 -1.1875l0 -8.984375l3.390625 0l0 12.6875l-3.1875 0l-0.09375 -1.296875zm9.8984375 -14.5l0 3.109375l2.171875 0l0 2.484375l-2.171875 0l0 6.328125q0 0.703125 0.265625 1.015625q0.265625 0.296875 1.03125 0.296875q0.5625 0 1.0 -0.078125l0 2.5625q-1.0 0.3125 -2.046875 0.3125q-3.5625 0 -3.640625 -3.59375l0 -6.84375l-1.84375 0l0 -2.484375l1.84375 0l0 -3.109375l3.390625 0zm4.234375 14.125q0 -0.796875 0.53125 -1.296875q0.546875 -0.515625 1.375 -0.515625q0.828125 0 1.375 0.515625q0.546875 0.5 0.546875 1.296875q0 0.796875 -0.546875 1.296875q-0.53125 0.5 -1.375 0.5q-0.828125 0 -1.375 -0.5q-0.53125 -0.5 -0.53125 -1.296875zm0 -10.0q0 -0.796875 0.53125 -1.296875q0.546875 -0.515625 1.375 -0.515625q0.828125 0 1.375 0.515625q0.546875 0.5 0.546875 1.296875q0 0.796875 -0.546875 1.296875q-0.53125 0.5 -1.375 0.5q-0.828125 0 -1.375 -0.5q-0.53125 -0.5 -0.53125 -1.296875zm59.570305 -5.5625l-1.65625 0l0 18.59375l1.65625 0l0 2.609375l-5.0624924 0l0 -23.828125l5.0624924 0l0 2.625zm5.4648438 17.234375l-3.515625 0l0 -17.0625l3.515625 0l0 17.0625zm6.1523438 -12.6875l0.109375 1.46875q1.359375 -1.703125 3.640625 -1.703125q2.015625 0 3.0 1.1875q0.984375 1.1875 1.0 3.546875l0 8.1875l-3.375 0l0 -8.109375q0 -1.078125 -0.46875 -1.5625q-0.46875 -0.484375 -1.5625 -0.484375q-1.4375 0 -2.140625 1.21875l0 8.9375l-3.390625 0l0 -12.6875l3.1875 0zm9.175781 -7.171875l5.0625 0l0 23.828125l-5.0625 0l0 -2.609375l1.671875 0l0 -18.59375l-1.671875 0l0 -2.625z" fill-rule="nonzero"/><path fill="#000000" d="m31.919579 352.94794q0 2.515625 -0.890625 4.421875q-0.890625 1.890625 -2.5625 2.921875q-1.65625 1.03125 -3.796875 1.03125q-2.125 0 -3.796875 -1.015625q-1.65625 -1.03125 -2.578125 -2.921875q-0.90625 -1.890625 -0.90625 -4.34375l0 -0.84375q0 -2.53125 0.90625 -4.4375q0.90625 -1.921875 2.5625 -2.9375q1.65625 -1.03125 3.78125 -1.03125q2.140625 0 3.796875 1.03125q1.65625 1.015625 2.5625 2.9375q0.921875 1.90625 0.921875 4.421875l0 0.765625zm-3.5625 -0.78125q0 -2.6875 -0.96875 -4.078125q-0.953125 -1.390625 -2.734375 -1.390625q-1.78125 0 -2.75 1.375q-0.953125 1.375 -0.953125 4.03125l0 0.84375q0 2.609375 0.953125 4.046875q0.96875 1.4375 2.765625 1.4375q1.765625 0 2.71875 -1.375q0.953125 -1.390625 0.96875 -4.0625l0 -0.828125zm13.4765625 7.625q-1.25 1.53125 -3.46875 1.53125q-2.03125 0 -3.109375 -1.171875q-1.0625 -1.171875 -1.09375 -3.4375l0 -8.3125l3.390625 0l0 8.203125q0 1.96875 1.796875 1.96875q1.734375 0 2.375 -1.1875l0 -8.984375l3.390625 0l0 12.6875l-3.1875 0l-0.09375 -1.296875zm9.8984375 -14.5l0 3.109375l2.171875 0l0 2.484375l-2.171875 0l0 6.328125q0 0.703125 0.265625 1.015625q0.265625 0.296875 1.03125 0.296875q0.5625 0 1.0 -0.078125l0 2.5625q-1.0 0.3125 -2.046875 0.3125q-3.5625 0 -3.640625 -3.59375l0 -6.84375l-1.84375 0l0 -2.484375l1.84375 0l0 -3.109375l3.390625 0zm15.46875 9.578125q0 2.921875 -1.328125 4.6875q-1.328125 1.765625 -3.59375 1.765625q-1.921875 0 -3.109375 -1.34375l0 5.984375l-3.390625 0l0 -17.5625l3.140625 0l0.125 1.25q1.234375 -1.484375 3.203125 -1.484375q2.34375 0 3.640625 1.734375q1.3125 1.734375 1.3125 4.78125l0 0.1875zm-3.390625 -0.25q0 -1.765625 -0.625 -2.71875q-0.625 -0.96875 -1.828125 -0.96875q-1.59375 0 -2.1875 1.21875l0 5.1875q0.625 1.25 2.21875 1.25q2.421875 0 2.421875 -3.96875zm13.074219 5.171875q-1.25 1.53125 -3.46875 1.53125q-2.03125 0 -3.109375 -1.171875q-1.0625 -1.171875 -1.09375 -3.4375l0 -8.3125l3.390625 0l0 8.203125q0 1.96875 1.796875 1.96875q1.734375 0 2.375 -1.1875l0 -8.984375l3.390625 0l0 12.6875l-3.1875 0l-0.09375 -1.296875zm9.8984375 -14.5l0 3.109375l2.171875 0l0 2.484375l-2.171875 0l0 6.328125q0 0.703125 0.265625 1.015625q0.265625 0.296875 1.03125 0.296875q0.5625 0 1.0 -0.078125l0 2.5625q-1.0 0.3125 -2.046875 0.3125q-3.5625 0 -3.640625 -3.59375l0 -6.84375l-1.84375 0l0 -2.484375l1.84375 0l0 -3.109375l3.390625 0zm4.234375 14.125q0 -0.796875 0.53125 -1.296875q0.546875 -0.515625 1.375 -0.515625q0.828125 0 1.375 0.515625q0.546875 0.5 0.546875 1.296875q0 0.796875 -0.546875 1.296875q-0.53125 0.5 -1.375 0.5q-0.828125 0 -1.375 -0.5q-0.53125 -0.5 -0.53125 -1.296875zm0 -10.0q0 -0.796875 0.53125 -1.296875q0.546875 -0.515625 1.375 -0.515625q0.828125 0 1.375 0.515625q0.546875 0.5 0.546875 1.296875q0 0.796875 -0.546875 1.296875q-0.53125 0.5 -1.375 0.5q-0.828125 0 -1.375 -0.5q-0.53125 -0.5 -0.53125 -1.296875zm41.640617 -5.5625l-1.65625 0l0 18.59375l1.65625 0l0 2.609375l-5.0624924 0l0 -23.828125l5.0624924 0l0 2.625zm15.746094 9.09375q0 2.515625 -0.890625 4.421875q-0.890625 1.890625 -2.5625 2.921875q-1.65625 1.03125 -3.796875 1.03125q-2.125 0 -3.796875 -1.015625q-1.65625 -1.03125 -2.578125 -2.921875q-0.90625 -1.890625 -0.90625 -4.34375l0 -0.84375q0 -2.53125 0.90625 -4.4375q0.90625 -1.921875 2.5625 -2.9375q1.65625 -1.03125 3.78125 -1.03125q2.140625 0 3.796875 1.03125q1.65625 1.015625 2.5625 2.9375q0.921875 1.90625 0.921875 4.421875l0 0.765625zm-3.5625 -0.78125q0 -2.6875 -0.96875 -4.078125q-0.953125 -1.390625 -2.734375 -1.390625q-1.78125 0 -2.75 1.375q-0.953125 1.375 -0.953125 4.03125l0 0.84375q0 2.609375 0.953125 4.046875q0.96875 1.4375 2.765625 1.4375q1.765625 0 2.71875 -1.375q0.953125 -1.390625 0.96875 -4.0625l0 -0.828125zm13.4765625 7.625q-1.25 1.53125 -3.46875 1.53125q-2.03125 0 -3.109375 -1.171875q-1.0625 -1.171875 -1.09375 -3.4375l0 -8.3125l3.390625 0l0 8.203125q0 1.96875 1.796875 1.96875q1.734375 0 2.375 -1.1875l0 -8.984375l3.390625 0l0 12.6875l-3.1875 0l-0.09375 -1.296875zm9.8984375 -14.5l0 3.109375l2.171875 0l0 2.484375l-2.171875 0l0 6.328125q0 0.703125 0.265625 1.015625q0.265625 0.296875 1.03125 0.296875q0.5625 0 1.0 -0.078125l0 2.5625q-1.0 0.3125 -2.046875 0.3125q-3.5625 0 -3.640625 -3.59375l0 -6.84375l-1.84375 0l0 -2.484375l1.84375 0l0 -3.109375l3.390625 0zm4.234375 14.125q0 -0.796875 0.53125 -1.296875q0.546875 -0.515625 1.375 -0.515625q0.828125 0 1.375 0.515625q0.546875 0.5 0.546875 1.296875q0 0.796875 -0.546875 1.296875q-0.53125 0.5 -1.375 0.5q-0.828125 0 -1.375 -0.5q-0.53125 -0.5 -0.53125 -1.296875zm0 -10.0q0 -0.796875 0.53125 -1.296875q0.546875 -0.515625 1.375 -0.515625q0.828125 0 1.375 0.515625q0.546875 0.5 0.546875 1.296875q0 0.796875 -0.546875 1.296875q-0.53125 0.5 -1.375 0.5q-0.828125 0 -1.375 -0.5q-0.53125 -0.5 -0.53125 -1.296875zm17.929688 4.609375q0 3.546875 -1.46875 5.421875q-1.453125 1.875 -4.28125 1.875q-2.78125 0 -4.265625 -1.84375q-1.46875 -1.84375 -1.515625 -5.265625l0 -3.140625q0 -3.578125 1.484375 -5.421875q1.484375 -1.859375 4.265625 -1.859375q2.796875 0 4.265625 1.84375q1.484375 1.828125 1.515625 5.25l0 3.140625zm-3.375 -3.4375q0 -2.125 -0.59375 -3.09375q-0.578125 -0.96875 -1.796875 -0.96875q-1.203125 0 -1.78125 0.921875q-0.5625 0.921875 -0.59375 2.875l0 4.15625q0 2.078125 0.5625 3.09375q0.578125 1.015625 1.828125 1.015625q1.25 0 1.796875 -0.96875q0.546875 -0.96875 0.578125 -2.984375l0 -4.046875zm4.6601562 -9.359375l5.0625 0l0 23.828125l-5.0625 0l0 -2.609375l1.671875 0l0 -18.59375l-1.671875 0l0 -2.625z" fill-rule="nonzero"/><path fill="#000000" d="m31.778954 390.08856l-3.515625 0l-6.84375 -11.234375l0 11.234375l-3.515625 0l0 -17.0625l3.515625 0l6.84375 11.25l0 -11.25l3.515625 0l0 17.0625zm2.3203125 -6.453125q0 -1.890625 0.71875 -3.359375q0.734375 -1.484375 2.09375 -2.296875q1.359375 -0.8125 3.171875 -0.8125q2.5625 0 4.1875 1.578125q1.625 1.5625 1.8125 4.265625l0.015625 0.859375q0 2.921875 -1.625 4.6875q-1.625 1.765625 -4.375 1.765625q-2.734375 0 -4.375 -1.75q-1.625 -1.765625 -1.625 -4.796875l0 -0.140625zm3.375 0.234375q0 1.8125 0.671875 2.765625q0.6875 0.953125 1.953125 0.953125q1.234375 0 1.921875 -0.9375q0.703125 -0.953125 0.703125 -3.015625q0 -1.78125 -0.703125 -2.75q-0.6875 -0.96875 -1.9375 -0.96875q-1.25 0 -1.9375 0.96875q-0.671875 0.96875 -0.671875 2.984375zm10.1953125 -0.21875q0 -2.96875 1.328125 -4.71875q1.328125 -1.765625 3.640625 -1.765625q1.84375 0 3.046875 1.390625l0 -6.46875l3.40625 0l0 18.0l-3.0625 0l-0.15625 -1.34375q-1.265625 1.578125 -3.265625 1.578125q-2.234375 0 -3.59375 -1.765625q-1.34375 -1.765625 -1.34375 -4.90625zm3.375 0.25q0 1.78125 0.625 2.734375q0.625 0.9375 1.8125 0.9375q1.5625 0 2.203125 -1.3125l0 -5.015625q-0.625 -1.3125 -2.1875 -1.3125q-2.453125 0 -2.453125 3.96875zm16.507812 6.421875q-2.796875 0 -4.546875 -1.703125q-1.75 -1.71875 -1.75 -4.5625l0 -0.328125q0 -1.921875 0.734375 -3.421875q0.75 -1.5 2.09375 -2.3125q1.359375 -0.828125 3.09375 -0.828125q2.59375 0 4.09375 1.640625q1.5 1.640625 1.5 4.65625l0 1.390625l-8.078125 0q0.15625 1.234375 0.984375 1.984375q0.828125 0.75 2.09375 0.75q1.953125 0 3.0625 -1.421875l1.65625 1.875q-0.75 1.078125 -2.0625 1.6875q-1.296875 0.59375 -2.875 0.59375zm-0.390625 -10.40625q-1.0 0 -1.640625 0.6875q-0.625 0.671875 -0.796875 1.9375l4.71875 0l0 -0.265625q-0.03125 -1.125 -0.625 -1.734375q-0.578125 -0.625 -1.65625 -0.625zm14.394531 6.671875q0 -0.625 -0.625 -0.984375q-0.609375 -0.359375 -1.96875 -0.640625q-4.515625 -0.953125 -4.515625 -3.84375q0 -1.6875 1.390625 -2.8125q1.40625 -1.140625 3.671875 -1.140625q2.40625 0 3.84375 1.140625q1.453125 1.140625 1.453125 2.953125l-3.375 0q0 -0.71875 -0.46875 -1.1875q-0.46875 -0.484375 -1.46875 -0.484375q-0.859375 0 -1.328125 0.390625q-0.46875 0.375 -0.46875 0.984375q0 0.5625 0.53125 0.90625q0.53125 0.34375 1.796875 0.59375q1.265625 0.25 2.140625 0.5625q2.6875 0.984375 2.6875 3.421875q0 1.734375 -1.5 2.8125q-1.484375 1.0625 -3.84375 1.0625q-1.59375 0 -2.828125 -0.5625q-1.234375 -0.578125 -1.9375 -1.5625q-0.703125 -1.0 -0.703125 -2.140625l3.21875 0q0.046875 0.90625 0.65625 1.390625q0.625 0.46875 1.671875 0.46875q0.96875 0 1.46875 -0.359375q0.5 -0.375 0.5 -0.96875zm5.6523438 1.828125q0 -0.796875 0.53125 -1.296875q0.546875 -0.515625 1.375 -0.515625q0.828125 0 1.375 0.515625q0.546875 0.5 0.546875 1.296875q0 0.796875 -0.546875 1.296875q-0.53125 0.5 -1.375 0.5q-0.828125 0 -1.375 -0.5q-0.53125 -0.5 -0.53125 -1.296875zm0 -10.0q0 -0.796875 0.53125 -1.296875q0.546875 -0.515625 1.375 -0.515625q0.828125 0 1.375 0.515625q0.546875 0.5 0.546875 1.296875q0 0.796875 -0.546875 1.296875q-0.53125 0.5 -1.375 0.5q-0.828125 0 -1.375 -0.5q-0.53125 -0.5 -0.53125 -1.296875zm47.61718 -5.5625l-1.65625 0l0 18.59375l1.65625 0l0 2.609375l-5.0625 0l0 -23.828125l5.0625 0l0 2.625zm5.4648438 17.234375l-3.515625 0l0 -17.0625l3.515625 0l0 17.0625zm6.1523438 -12.6875l0.109375 1.46875q1.359375 -1.703125 3.640625 -1.703125q2.015625 0 3.0 1.1875q0.984375 1.1875 1.0 3.546875l0 8.1875l-3.375 0l0 -8.109375q0 -1.078125 -0.46875 -1.5625q-0.46875 -0.484375 -1.5625 -0.484375q-1.4375 0 -2.140625 1.21875l0 8.9375l-3.390625 0l0 -12.6875l3.1875 0zm11.207031 16.96875l-1.78125 -0.921875l0.421875 -0.765625q0.796875 -1.4375 0.8125 -2.859375l0 -2.625l2.859375 0l-0.015625 2.34375q0 1.3125 -0.65625 2.625q-0.640625 1.328125 -1.640625 2.203125zm25.195312 -12.421875q0 2.515625 -0.890625 4.421875q-0.890625 1.890625 -2.5625 2.921875q-1.65625 1.03125 -3.796875 1.03125q-2.125 0 -3.796875 -1.015625q-1.65625 -1.03125 -2.578125 -2.921875q-0.90625 -1.890625 -0.90625 -4.34375l0 -0.84375q0 -2.53125 0.90625 -4.4375q0.90625 -1.921875 2.5625 -2.9375q1.65625 -1.03125 3.78125 -1.03125q2.140625 0 3.796875 1.03125q1.65625 1.015625 2.5625 2.9375q0.921875 1.90625 0.921875 4.421875l0 0.765625zm-3.5625 -0.78125q0 -2.6875 -0.96875 -4.078125q-0.953125 -1.390625 -2.734375 -1.390625q-1.78125 0 -2.75 1.375q-0.953125 1.375 -0.953125 4.03125l0 0.84375q0 2.609375 0.953125 4.046875q0.96875 1.4375 2.765625 1.4375q1.765625 0 2.71875 -1.375q0.953125 -1.390625 0.96875 -4.0625l0 -0.828125zm13.4765625 7.625q-1.25 1.53125 -3.46875 1.53125q-2.03125 0 -3.109375 -1.171875q-1.0625 -1.171875 -1.09375 -3.4375l0 -8.3125l3.390625 0l0 8.203125q0 1.96875 1.796875 1.96875q1.734375 0 2.375 -1.1875l0 -8.984375l3.390625 0l0 12.6875l-3.1875 0l-0.09375 -1.296875zm9.8984375 -14.5l0 3.109375l2.171875 0l0 2.484375l-2.171875 0l0 6.328125q0 0.703125 0.265625 1.015625q0.265625 0.296875 1.03125 0.296875q0.5625 0 1.0 -0.078125l0 2.5625q-1.0 0.3125 -2.046875 0.3125q-3.5625 0 -3.640625 -3.59375l0 -6.84375l-1.84375 0l0 -2.484375l1.84375 0l0 -3.109375l3.390625 0zm4.9375 20.078125l-1.78125 -0.921875l0.421875 -0.765625q0.796875 -1.4375 0.8125 -2.859375l0 -2.625l2.859375 0l-0.015625 2.34375q0 1.3125 -0.65625 2.625q-0.640625 1.328125 -1.640625 2.203125zm20.804688 -7.796875l-6.15625 0l-1.171875 3.515625l-3.75 0l6.359375 -17.0625l3.25 0l6.390625 17.0625l-3.734375 0l-1.1875 -3.515625zm-5.21875 -2.84375l4.265625 0l-2.140625 -6.390625l-2.125 6.390625zm12.3984375 10.640625l-1.78125 -0.921875l0.421875 -0.765625q0.796875 -1.4375 0.8125 -2.859375l0 -2.625l2.859375 0l-0.015625 2.34375q0 1.3125 -0.65625 2.625q-0.640625 1.328125 -1.640625 2.203125zm11.1796875 -4.28125l0 -17.0625l5.96875 0q3.109375 0 4.7031403 1.1875q1.609375 1.1875 1.609375 3.484375q0 1.25 -0.640625 2.21875q-0.640625 0.953125 -1.796875 1.390625q1.3125 0.328125 2.0625 1.328125q0.765625 1.0 0.765625 2.4375q0 2.453125 -1.578125 3.71875q-1.5625 1.265625 -4.4687653 1.296875l-6.625 0zm3.515625 -7.4375l0 4.609375l3.0 0q1.25 0 1.9375 -0.59375q0.703125 -0.59375 0.703125 -1.625q0 -2.34375 -2.421875 -2.390625l-3.21875 0zm0 -2.484375l2.59375 0q2.65625 -0.046875 2.65625 -2.109375q0 -1.171875 -0.671875 -1.671875q-0.671875 -0.515625 -2.125 -0.515625l-2.453125 0l0 4.296875zm12.4570465 14.203125l-1.78125 -0.921875l0.421875 -0.765625q0.796875 -1.4375 0.8125 -2.859375l0 -2.625l2.859375 0l-0.015625 2.34375q0 1.3125 -0.65625 2.625q-0.640625 1.328125 -1.640625 2.203125zm24.570312 -9.96875q-0.203125 2.75 -2.046875 4.34375q-1.828125 1.578125 -4.828125 1.578125q-3.28125 0 -5.15625 -2.203125q-1.875 -2.21875 -1.875 -6.078125l0 -1.03125q0 -2.46875 0.859375 -4.34375q0.875 -1.875 2.484375 -2.875q1.609375 -1.0 3.734375 -1.0q2.953125 0 4.75 1.578125q1.8125 1.578125 2.09375 4.4375l-3.515625 0q-0.125 -1.640625 -0.921875 -2.390625q-0.78125 -0.75 -2.40625 -0.75q-1.75 0 -2.625 1.265625q-0.875 1.265625 -0.890625 3.90625l0 1.296875q0 2.765625 0.828125 4.046875q0.84375 1.265625 2.640625 1.265625q1.640625 0 2.4375 -0.734375q0.796875 -0.75 0.921875 -2.3125l3.515625 0zm0.9375 -14.171875l5.0625 0l0 23.828125l-5.0625 0l0 -2.609375l1.671875 0l0 -18.59375l-1.671875 0l0 -2.625z" fill-rule="nonzero"/><path fill="#000000" fill-opacity="0.0" d="m321.89108 81.29938l0 0c0 -40.8293 33.098694 -73.927986 73.92798 -73.927986l295.7031 0l0 0c19.606934 0 38.410767 7.7888193 52.274963 21.653006c13.864197 13.864187 21.653015 32.66806 21.653015 52.27498l0 481.2149c0 40.829285 -33.098694 73.92798 -73.92798 73.92798l-295.7031 0c-40.829285 0 -73.92798 -33.098694 -73.92798 -73.92798z" fill-rule="evenodd"/><path stroke="#000000" stroke-width="4.0" stroke-linejoin="round" stroke-linecap="butt" stroke-dasharray="16.0,12.0" d="m321.89108 81.29938l0 0c0 -40.8293 33.098694 -73.927986 73.92798 -73.927986l295.7031 0l0 0c19.606934 0 38.410767 7.7888193 52.274963 21.653006c13.864197 13.864187 21.653015 32.66806 21.653015 52.27498l0 481.2149c0 40.829285 -33.098694 73.92798 -73.92798 73.92798l-295.7031 0c-40.829285 0 -73.92798 -33.098694 -73.92798 -73.92798z" fill-rule="evenodd"/><path fill="#4a86e8" d="m492.93277 74.89543l0 0c0 -6.3586044 5.154663 -11.513275 11.513275 -11.513275l103.16986 0c3.0535278 0 5.9819336 1.2130051 8.141113 3.3721619c2.1591187 2.1591568 3.3721313 5.0876007 3.3721313 8.141113l0 46.05172c0 6.358612 -5.154663 11.513283 -11.513245 11.513283l-103.16986 0c-6.358612 0 -11.513275 -5.1546707 -11.513275 -11.513283z" fill-rule="evenodd"/><path stroke="#000000" stroke-width="1.0" stroke-linejoin="round" stroke-linecap="butt" d="m492.93277 74.89543l0 0c0 -6.3586044 5.154663 -11.513275 11.513275 -11.513275l103.16986 0c3.0535278 0 5.9819336 1.2130051 8.141113 3.3721619c2.1591187 2.1591568 3.3721313 5.0876007 3.3721313 8.141113l0 46.05172c0 6.358612 -5.154663 11.513283 -11.513245 11.513283l-103.16986 0c-6.358612 0 -11.513275 -5.1546707 -11.513275 -11.513283z" fill-rule="evenodd"/><path fill="#4a86e8" d="m588.9949 254.68875l0 0c0 -6.358612 5.154663 -11.513275 11.513245 -11.513275l103.16986 0c3.0535278 0 5.9819336 1.2129974 8.141113 3.3721619c2.1591797 2.1591644 3.3721313 5.0876007 3.3721313 8.141113l0 46.051727c0 6.358612 -5.154663 11.513275 -11.513245 11.513275l-103.16986 0c-6.3585815 0 -11.513245 -5.154663 -11.513245 -11.513275z" fill-rule="evenodd"/><path stroke="#000000" stroke-width="1.0" stroke-linejoin="round" stroke-linecap="butt" d="m588.9949 254.68875l0 0c0 -6.358612 5.154663 -11.513275 11.513245 -11.513275l103.16986 0c3.0535278 0 5.9819336 1.2129974 8.141113 3.3721619c2.1591797 2.1591644 3.3721313 5.0876007 3.3721313 8.141113l0 46.051727c0 6.358612 -5.154663 11.513275 -11.513245 11.513275l-103.16986 0c-6.3585815 0 -11.513245 -5.154663 -11.513245 -11.513275z" fill-rule="evenodd"/><path fill="#000000" fill-opacity="0.0" d="m556.03094 132.46043c0 27.67891 -30.208008 41.52002 -60.416077 55.35782c-30.208069 13.837799 -60.416107 27.672272 -60.416107 55.344543" fill-rule="evenodd"/><path stroke="#000000" stroke-width="4.0" stroke-linejoin="round" stroke-linecap="butt" d="m556.03094 132.46043c0 27.67891 -30.208008 41.52002 -60.416077 55.35782c-30.208069 13.837799 -60.416107 27.672272 -60.416107 55.344543" fill-rule="evenodd"/><path fill="#ffffff" d="m372.1259 254.68991l0 0c0 -6.358612 5.1546936 -11.513275 11.513275 -11.513275l103.16986 0c3.0534973 0 5.981964 1.2129974 8.141113 3.3721619c2.1591492 2.1591492 3.3721619 5.0876007 3.3721619 8.141113l0 46.051727c0 6.3585815 -5.154663 11.513275 -11.513275 11.513275l-103.16986 0c-6.3585815 0 -11.513275 -5.1546936 -11.513275 -11.513275z" fill-rule="evenodd"/><path stroke="#000000" stroke-width="1.0" stroke-linejoin="round" stroke-linecap="butt" d="m372.1259 254.68991l0 0c0 -6.358612 5.1546936 -11.513275 11.513275 -11.513275l103.16986 0c3.0534973 0 5.981964 1.2129974 8.141113 3.3721619c2.1591492 2.1591492 3.3721619 5.0876007 3.3721619 8.141113l0 46.051727c0 6.3585815 -5.154663 11.513275 -11.513275 11.513275l-103.16986 0c-6.3585815 0 -11.513275 -5.1546936 -11.513275 -11.513275z" fill-rule="evenodd"/><path fill="#ff9900" d="m422.56873 255.8918l0 0c0 -0.8380585 0.6793823 -1.5174408 1.517456 -1.5174408l22.330566 0c0.40246582 0 0.78842163 0.15986633 1.072998 0.44444275c0.28457642 0.28457642 0.444458 0.6705475 0.444458 1.072998l0 6.069626c0 0.83807373 -0.6793823 1.517456 -1.517456 1.517456l-22.330566 0c-0.83807373 0 -1.517456 -0.6793823 -1.517456 -1.517456z" fill-rule="evenodd"/><path stroke="#000000" stroke-width="1.0" stroke-linejoin="round" stroke-linecap="butt" d="m422.56873 255.8918l0 0c0 -0.8380585 0.6793823 -1.5174408 1.517456 -1.5174408l22.330566 0c0.40246582 0 0.78842163 0.15986633 1.072998 0.44444275c0.28457642 0.28457642 0.444458 0.6705475 0.444458 1.072998l0 6.069626c0 0.83807373 -0.6793823 1.517456 -1.517456 1.517456l-22.330566 0c-0.83807373 0 -1.517456 -0.6793823 -1.517456 -1.517456z" fill-rule="evenodd"/><path fill="#ff9900" d="m422.56873 293.46466l0 0c0 -0.83807373 0.6793823 -1.517456 1.517456 -1.517456l22.330566 0c0.40246582 0 0.78842163 0.15988159 1.072998 0.444458c0.28457642 0.28457642 0.444458 0.6705322 0.444458 1.072998l0 6.0696106c0 0.83807373 -0.6793823 1.517456 -1.517456 1.517456l-22.330566 0c-0.83807373 0 -1.517456 -0.6793823 -1.517456 -1.517456z" fill-rule="evenodd"/><path stroke="#000000" stroke-width="1.0" stroke-linejoin="round" stroke-linecap="butt" d="m422.56873 293.46466l0 0c0 -0.83807373 0.6793823 -1.517456 1.517456 -1.517456l22.330566 0c0.40246582 0 0.78842163 0.15988159 1.072998 0.444458c0.28457642 0.28457642 0.444458 0.6705322 0.444458 1.072998l0 6.0696106c0 0.83807373 -0.6793823 1.517456 -1.517456 1.517456l-22.330566 0c-0.83807373 0 -1.517456 -0.6793823 -1.517456 -1.517456z" fill-rule="evenodd"/><path fill="#ff9900" d="m438.60995 274.67822l0 0c0 -0.8380432 0.6793823 -1.5174255 1.517456 -1.5174255l22.330566 0c0.40246582 0 0.78842163 0.15985107 1.072998 0.4444275c0.28457642 0.28457642 0.444458 0.67056274 0.444458 1.072998l0 6.069641c0 0.8380432 -0.6793823 1.5174255 -1.517456 1.5174255l-22.330566 0c-0.83807373 0 -1.517456 -0.6793823 -1.517456 -1.5174255z" fill-rule="evenodd"/><path stroke="#000000" stroke-width="1.0" stroke-linejoin="round" stroke-linecap="butt" d="m438.60995 274.67822l0 0c0 -0.8380432 0.6793823 -1.5174255 1.517456 -1.5174255l22.330566 0c0.40246582 0 0.78842163 0.15985107 1.072998 0.4444275c0.28457642 0.28457642 0.444458 0.67056274 0.444458 1.072998l0 6.069641c0 0.8380432 -0.6793823 1.5174255 -1.517456 1.5174255l-22.330566 0c-0.83807373 0 -1.517456 -0.6793823 -1.517456 -1.5174255z" fill-rule="evenodd"/><path fill="#ff9900" d="m406.5275 274.67822l0 0c0 -0.8380432 0.6793823 -1.5174255 1.517456 -1.5174255l22.330566 0c0.40246582 0 0.78842163 0.15985107 1.072998 0.4444275c0.28457642 0.28457642 0.444458 0.67056274 0.444458 1.072998l0 6.069641c0 0.8380432 -0.6793823 1.5174255 -1.517456 1.5174255l-22.330566 0c-0.83807373 0 -1.517456 -0.6793823 -1.517456 -1.5174255z" fill-rule="evenodd"/><path stroke="#000000" stroke-width="1.0" stroke-linejoin="round" stroke-linecap="butt" d="m406.5275 274.67822l0 0c0 -0.8380432 0.6793823 -1.5174255 1.517456 -1.5174255l22.330566 0c0.40246582 0 0.78842163 0.15985107 1.072998 0.4444275c0.28457642 0.28457642 0.444458 0.67056274 0.444458 1.072998l0 6.069641c0 0.8380432 -0.6793823 1.5174255 -1.517456 1.5174255l-22.330566 0c-0.83807373 0 -1.517456 -0.6793823 -1.517456 -1.5174255z" fill-rule="evenodd"/><path fill="#000000" fill-opacity="0.0" d="m435.25146 263.47888c0 2.4204712 -4.0085144 3.6322021 -8.017029 4.8409424c-4.0085144 1.2087402 -8.017029 2.4144592 -8.017029 4.828949" fill-rule="evenodd"/><path stroke="#000000" stroke-width="4.0" stroke-linejoin="round" stroke-linecap="butt" d="m435.25146 263.47888c0 2.4204712 -4.0085144 3.6322021 -8.017029 4.8409424c-4.0085144 1.2087402 -8.017029 2.4144592 -8.017029 4.828949" fill-rule="evenodd"/><path fill="#000000" fill-opacity="0.0" d="m435.25146 263.47888c0 2.4204712 4.0085144 3.6322021 8.017029 4.8409424c4.0085144 1.2087402 8.017029 2.4144592 8.017029 4.828949" fill-rule="evenodd"/><path stroke="#000000" stroke-width="4.0" stroke-linejoin="round" stroke-linecap="butt" d="m435.25146 263.47888c0 2.4204712 4.0085144 3.6322021 8.017029 4.8409424c4.0085144 1.2087402 8.017029 2.4144592 8.017029 4.828949" fill-rule="evenodd"/><path fill="#000000" fill-opacity="0.0" d="m419.21024 282.2653c0 2.4204712 4.0085144 3.6322327 8.017029 4.8409424c4.0085144 1.2087402 8.017029 2.4144897 8.017029 4.8289795" fill-rule="evenodd"/><path stroke="#000000" stroke-width="4.0" stroke-linejoin="round" stroke-linecap="butt" d="m419.21024 282.2653c0 2.4204712 4.0085144 3.6322327 8.017029 4.8409424c4.0085144 1.2087402 8.017029 2.4144897 8.017029 4.8289795" fill-rule="evenodd"/><path fill="#000000" fill-opacity="0.0" d="m451.2927 282.2653c0 2.4204712 -4.0085144 3.6322327 -8.017029 4.8409424c-4.0085144 1.2087402 -8.017029 2.4144897 -8.017029 4.8289795" fill-rule="evenodd"/><path stroke="#000000" stroke-width="4.0" stroke-linejoin="round" stroke-linecap="butt" d="m451.2927 282.2653c0 2.4204712 -4.0085144 3.6322327 -8.017029 4.8409424c-4.0085144 1.2087402 -8.017029 2.4144897 -8.017029 4.8289795" fill-rule="evenodd"/><path fill="#ffffff" d="m589.0225 400.16434l0 0c0 -6.358612 5.154663 -11.513275 11.513245 -11.513275l103.16986 0c3.0535278 0 5.9819336 1.2130127 8.141113 3.3721619c2.1591797 2.1591492 3.3721313 5.087616 3.3721313 8.141113l0 46.051727c0 6.358612 -5.154663 11.513275 -11.513245 11.513275l-103.16986 0c-6.3585815 0 -11.513245 -5.154663 -11.513245 -11.513275z" fill-rule="evenodd"/><path stroke="#000000" stroke-width="1.0" stroke-linejoin="round" stroke-linecap="butt" d="m589.0225 400.16434l0 0c0 -6.358612 5.154663 -11.513275 11.513245 -11.513275l103.16986 0c3.0535278 0 5.9819336 1.2130127 8.141113 3.3721619c2.1591797 2.1591492 3.3721313 5.087616 3.3721313 8.141113l0 46.051727c0 6.358612 -5.154663 11.513275 -11.513245 11.513275l-103.16986 0c-6.3585815 0 -11.513245 -5.154663 -11.513245 -11.513275z" fill-rule="evenodd"/><path fill="#ff9900" d="m639.46533 401.36624l0 0c0 -0.83807373 0.6793823 -1.517456 1.517456 -1.517456l22.330566 0c0.40246582 0 0.7883911 0.15988159 1.072998 0.444458c0.2845459 0.28457642 0.444458 0.6705322 0.444458 1.072998l0 6.0696106c0 0.83807373 -0.6793823 1.517456 -1.517456 1.517456l-22.330566 0c-0.83807373 0 -1.517456 -0.6793823 -1.517456 -1.517456z" fill-rule="evenodd"/><path stroke="#000000" stroke-width="1.0" stroke-linejoin="round" stroke-linecap="butt" d="m639.46533 401.36624l0 0c0 -0.83807373 0.6793823 -1.517456 1.517456 -1.517456l22.330566 0c0.40246582 0 0.7883911 0.15988159 1.072998 0.444458c0.2845459 0.28457642 0.444458 0.6705322 0.444458 1.072998l0 6.0696106c0 0.83807373 -0.6793823 1.517456 -1.517456 1.517456l-22.330566 0c-0.83807373 0 -1.517456 -0.6793823 -1.517456 -1.517456z" fill-rule="evenodd"/><path fill="#ff9900" d="m639.46533 438.9391l0 0c0 -0.83807373 0.6793823 -1.517456 1.517456 -1.517456l22.330566 0c0.40246582 0 0.7883911 0.15988159 1.072998 0.444458c0.2845459 0.28457642 0.444458 0.67056274 0.444458 1.072998l0 6.0696106c0 0.83807373 -0.6793823 1.517456 -1.517456 1.517456l-22.330566 0c-0.83807373 0 -1.517456 -0.6793823 -1.517456 -1.517456z" fill-rule="evenodd"/><path stroke="#000000" stroke-width="1.0" stroke-linejoin="round" stroke-linecap="butt" d="m639.46533 438.9391l0 0c0 -0.83807373 0.6793823 -1.517456 1.517456 -1.517456l22.330566 0c0.40246582 0 0.7883911 0.15988159 1.072998 0.444458c0.2845459 0.28457642 0.444458 0.67056274 0.444458 1.072998l0 6.0696106c0 0.83807373 -0.6793823 1.517456 -1.517456 1.517456l-22.330566 0c-0.83807373 0 -1.517456 -0.6793823 -1.517456 -1.517456z" fill-rule="evenodd"/><path fill="#ff9900" d="m655.50653 420.15268l0 0c0 -0.83807373 0.6793823 -1.517456 1.517456 -1.517456l22.330566 0c0.40246582 0 0.78845215 0.15988159 1.072998 0.444458c0.28460693 0.28457642 0.444458 0.6705322 0.444458 1.072998l0 6.0696106c0 0.83807373 -0.6793823 1.517456 -1.517456 1.517456l-22.330566 0c-0.83807373 0 -1.517456 -0.6793823 -1.517456 -1.517456z" fill-rule="evenodd"/><path stroke="#000000" stroke-width="1.0" stroke-linejoin="round" stroke-linecap="butt" d="m655.50653 420.15268l0 0c0 -0.83807373 0.6793823 -1.517456 1.517456 -1.517456l22.330566 0c0.40246582 0 0.78845215 0.15988159 1.072998 0.444458c0.28460693 0.28457642 0.444458 0.6705322 0.444458 1.072998l0 6.0696106c0 0.83807373 -0.6793823 1.517456 -1.517456 1.517456l-22.330566 0c-0.83807373 0 -1.517456 -0.6793823 -1.517456 -1.517456z" fill-rule="evenodd"/><path fill="#ff9900" d="m623.4241 420.15268l0 0c0 -0.83807373 0.6793823 -1.517456 1.517456 -1.517456l22.330566 0c0.40246582 0 0.78845215 0.15988159 1.072998 0.444458c0.28460693 0.28457642 0.444458 0.6705322 0.444458 1.072998l0 6.0696106c0 0.83807373 -0.6793823 1.517456 -1.517456 1.517456l-22.330566 0c-0.83807373 0 -1.517456 -0.6793823 -1.517456 -1.517456z" fill-rule="evenodd"/><path stroke="#000000" stroke-width="1.0" stroke-linejoin="round" stroke-linecap="butt" d="m623.4241 420.15268l0 0c0 -0.83807373 0.6793823 -1.517456 1.517456 -1.517456l22.330566 0c0.40246582 0 0.78845215 0.15988159 1.072998 0.444458c0.28460693 0.28457642 0.444458 0.6705322 0.444458 1.072998l0 6.0696106c0 0.83807373 -0.6793823 1.517456 -1.517456 1.517456l-22.330566 0c-0.83807373 0 -1.517456 -0.6793823 -1.517456 -1.517456z" fill-rule="evenodd"/><path fill="#000000" fill-opacity="0.0" d="m652.1481 408.9533c0 2.4204712 -4.008545 3.6322021 -8.017029 4.8409424c-4.008545 1.2087402 -8.017029 2.4144897 -8.017029 4.828949" fill-rule="evenodd"/><path stroke="#000000" stroke-width="4.0" stroke-linejoin="round" stroke-linecap="butt" d="m652.1481 408.9533c0 2.4204712 -4.008545 3.6322021 -8.017029 4.8409424c-4.008545 1.2087402 -8.017029 2.4144897 -8.017029 4.828949" fill-rule="evenodd"/><path fill="#000000" fill-opacity="0.0" d="m652.1481 408.9533c0 2.4204712 4.008484 3.6322021 8.017029 4.8409424c4.008484 1.2087402 8.017029 2.4144897 8.017029 4.828949" fill-rule="evenodd"/><path stroke="#000000" stroke-width="4.0" stroke-linejoin="round" stroke-linecap="butt" d="m652.1481 408.9533c0 2.4204712 4.008484 3.6322021 8.017029 4.8409424c4.008484 1.2087402 8.017029 2.4144897 8.017029 4.828949" fill-rule="evenodd"/><path fill="#000000" fill-opacity="0.0" d="m636.1068 427.73975c0 2.4204712 4.008545 3.6322021 8.017029 4.8409424c4.008545 1.2087402 8.017029 2.4144592 8.017029 4.828949" fill-rule="evenodd"/><path stroke="#000000" stroke-width="4.0" stroke-linejoin="round" stroke-linecap="butt" d="m636.1068 427.73975c0 2.4204712 4.008545 3.6322021 8.017029 4.8409424c4.008545 1.2087402 8.017029 2.4144592 8.017029 4.828949" fill-rule="evenodd"/><path fill="#000000" fill-opacity="0.0" d="m668.1893 427.73975c0 2.4204712 -4.008484 3.6322021 -8.017029 4.8409424c-4.008484 1.2087402 -8.017029 2.4144592 -8.017029 4.828949" fill-rule="evenodd"/><path stroke="#000000" stroke-width="4.0" stroke-linejoin="round" stroke-linecap="butt" d="m668.1893 427.73975c0 2.4204712 -4.008484 3.6322021 -8.017029 4.8409424c-4.008484 1.2087402 -8.017029 2.4144592 -8.017029 4.828949" fill-rule="evenodd"/><path fill="#000000" fill-opacity="0.0" d="m556.03094 132.46043c0 27.67891 24.014404 41.52002 48.028748 55.35782c24.014404 13.837799 48.028748 27.672272 48.028748 55.344543" fill-rule="evenodd"/><path stroke="#000000" stroke-width="4.0" stroke-linejoin="round" stroke-linecap="butt" d="m556.03094 132.46043c0 27.67891 24.014404 41.52002 48.028748 55.35782c24.014404 13.837799 48.028748 27.672272 48.028748 55.344543" fill-rule="evenodd"/><path fill="#000000" fill-opacity="0.0" d="m652.093 312.25375c0 19.099243 0.0138549805 28.646973 0.027709961 38.198517c0.013793945 9.551544 0.027648926 19.106903 0.027648926 38.213776" fill-rule="evenodd"/><path stroke="#000000" stroke-width="4.0" stroke-linejoin="round" stroke-linecap="butt" d="m652.093 312.25375c0 19.099243 0.0138549805 28.646973 0.027709961 38.198517c0.013793945 9.551544 0.027648926 19.106903 0.027648926 38.213776" fill-rule="evenodd"/><path fill="#4a86e8" d="m492.93277 545.6388l0 0c0 -6.3586426 5.154663 -11.513306 11.513275 -11.513306l103.16986 0c3.0535278 0 5.9819336 1.2130127 8.141113 3.3721924c2.1591187 2.1591187 3.3721313 5.0875854 3.3721313 8.141113l0 46.051697c0 6.3586426 -5.154663 11.513306 -11.513245 11.513306l-103.16986 0c-6.358612 0 -11.513275 -5.154663 -11.513275 -11.513306z" fill-rule="evenodd"/><path stroke="#000000" stroke-width="1.0" stroke-linejoin="round" stroke-linecap="butt" d="m492.93277 545.6388l0 0c0 -6.3586426 5.154663 -11.513306 11.513275 -11.513306l103.16986 0c3.0535278 0 5.9819336 1.2130127 8.141113 3.3721924c2.1591187 2.1591187 3.3721313 5.0875854 3.3721313 8.141113l0 46.051697c0 6.3586426 -5.154663 11.513306 -11.513245 11.513306l-103.16986 0c-6.358612 0 -11.513275 -5.154663 -11.513275 -11.513306z" fill-rule="evenodd"/><path fill="#000000" fill-opacity="0.0" d="m652.1207 457.72934c0 19.098877 -24.021301 28.64621 -48.042603 38.197754c-24.02124 9.551544 -48.04254 19.10727 -48.04254 38.21457" fill-rule="evenodd"/><path stroke="#000000" stroke-width="4.0" stroke-linejoin="round" stroke-linecap="butt" d="m652.1207 457.72934c0 19.098877 -24.021301 28.64621 -48.042603 38.197754c-24.02124 9.551544 -48.04254 19.10727 -48.04254 38.21457" fill-rule="evenodd"/><path fill="#000000" fill-opacity="0.0" d="m556.03094 534.1255c0 -55.467407 -30.208008 -83.20392 -60.416077 -110.934845c-30.208069 -27.730957 -60.416107 -55.45633 -60.416107 -110.91269" fill-rule="evenodd"/><path stroke="#000000" stroke-width="4.0" stroke-linejoin="round" stroke-linecap="butt" d="m556.03094 534.1255c0 -55.467407 -30.208008 -83.20392 -60.416077 -110.934845c-30.208069 -27.730957 -60.416107 -55.45633 -60.416107 -110.91269" fill-rule="evenodd"/><path fill="#000000" fill-opacity="0.0" d="m472.38058 7.3727036l142.58267 0l0 33.133858l-142.58267 0z" fill-rule="evenodd"/><path fill="#000000" d="m488.17746 23.019577l4.859375 13.75l4.84375 -13.75l5.125 0l0 18.953125l-3.90625 0l0 -5.1875l0.390625 -8.9375l-5.125 14.125l-2.671875 0l-5.109375 -14.109375l0.390625 8.921875l0 5.1875l-3.90625 0l0 -18.953125l5.109375 0zm17.41275 11.78125q0 -2.09375 0.796875 -3.734375q0.8125 -1.640625 2.328125 -2.53125q1.515625 -0.90625 3.53125 -0.90625q2.84375 0 4.640625 1.75q1.8125 1.734375 2.015625 4.734375l0.03125 0.96875q0 3.234375 -1.8125 5.203125q-1.8125 1.953125 -4.859375 1.953125q-3.046875 0 -4.859375 -1.953125q-1.8125 -1.953125 -1.8125 -5.3125l0 -0.171875zm3.765625 0.28125q0 2.0 0.75 3.0625q0.75 1.0625 2.15625 1.0625q1.375 0 2.140625 -1.046875q0.765625 -1.0625 0.765625 -3.359375q0 -1.96875 -0.765625 -3.046875q-0.765625 -1.078125 -2.15625 -1.078125q-1.390625 0 -2.140625 1.078125q-0.75 1.0625 -0.75 3.328125zm11.30658 -0.25q0 -3.296875 1.46875 -5.25q1.484375 -1.953125 4.046875 -1.953125q2.0625 0 3.40625 1.53125l0 -7.1875l3.765625 0l0 20.0l-3.390625 0l-0.1875 -1.5q-1.40625 1.765625 -3.609375 1.765625q-2.5 0 -4.0 -1.953125q-1.5 -1.96875 -1.5 -5.453125zm3.765625 0.265625q0 1.984375 0.6875 3.046875q0.6875 1.046875 2.0 1.046875q1.75 0 2.46875 -1.46875l0 -5.5625q-0.703125 -1.46875 -2.4375 -1.46875q-2.71875 0 -2.71875 4.40625zm20.270203 5.4375q-1.390625 1.703125 -3.84375 1.703125q-2.265625 0 -3.46875 -1.296875q-1.1875 -1.3125 -1.203125 -3.828125l0 -9.21875l3.75 0l0 9.09375q0 2.203125 2.015625 2.203125q1.90625 0 2.625 -1.328125l0 -9.96875l3.765625 0l0 14.078125l-3.53125 0l-0.109375 -1.4375zm10.462891 1.4375l-3.78125 0l0 -20.0l3.78125 0l0 20.0zm9.567566 0.265625q-3.09375 0 -5.046875 -1.90625q-1.9375 -1.90625 -1.9375 -5.0625l0 -0.359375q0 -2.125 0.8125 -3.796875q0.828125 -1.671875 2.328125 -2.578125q1.5 -0.90625 3.4375 -0.90625q2.890625 0 4.546875 1.828125q1.65625 1.8125 1.65625 5.15625l0 1.546875l-8.96875 0q0.1875 1.375 1.09375 2.21875q0.921875 0.828125 2.328125 0.828125q2.171875 0 3.40625 -1.578125l1.84375 2.0625q-0.84375 1.203125 -2.296875 1.875q-1.4375 0.671875 -3.203125 0.671875zm-0.421875 -11.5625q-1.125 0 -1.828125 0.765625q-0.6875 0.75 -0.875 2.15625l5.21875 0l0 -0.3125q-0.015625 -1.25 -0.671875 -1.921875q-0.65625 -0.6875 -1.84375 -0.6875zm15.233948 11.296875l0 -18.953125l6.640625 0q3.453125 0 5.234375 1.328125q1.78125 1.3125 1.78125 3.875q0 1.390625 -0.71875 2.453125q-0.71875 1.046875 -1.984375 1.546875q1.453125 0.359375 2.296875 1.46875q0.84375 1.109375 0.84375 2.703125q0 2.734375 -1.75 4.140625q-1.75 1.40625 -4.96875 1.4375l-7.375 0zm3.90625 -8.25l0 5.109375l3.34375 0q1.390625 0 2.15625 -0.65625q0.78125 -0.65625 0.78125 -1.8125q0 -2.609375 -2.703125 -2.640625l-3.578125 0zm0 -2.765625l2.890625 0q2.953125 -0.046875 2.953125 -2.34375q0 -1.296875 -0.75 -1.859375q-0.75 -0.5625 -2.359375 -0.5625l-2.734375 0l0 4.765625z" fill-rule="nonzero"/><path fill="#000000" fill-opacity="0.0" d="m494.7349 74.944885l120.22049 0l0 56.53543l-120.22049 0z" fill-rule="evenodd"/><path fill="#000000" d="m504.78177 98.50051q0 -2.625 0.78125 -4.40625q0.59375 -1.3125 1.59375 -2.359375q1.015625 -1.046875 2.234375 -1.546875q1.59375 -0.671875 3.7031555 -0.671875q3.796875 0 6.0625 2.359375q2.28125 2.34375 2.28125 6.546875q0 4.15625 -2.265625 6.515625q-2.25 2.34375 -6.03125 2.34375q-3.8437805 0 -6.1094055 -2.34375q-2.25 -2.34375 -2.25 -6.4375zm3.578125 -0.125q0 2.921875 1.34375 4.4375q1.34375 1.5 3.4219055 1.5q2.078125 0 3.40625 -1.484375q1.328125 -1.5 1.328125 -4.5q0 -2.953125 -1.296875 -4.40625q-1.296875 -1.453125 -3.4375 -1.453125q-2.1406555 0 -3.4531555 1.484375q-1.3125 1.46875 -1.3125 4.421875zm23.964874 8.609375l0 -1.859375q-0.6875 0.984375 -1.796875 1.5625q-1.109375 0.578125 -2.328125 0.578125q-1.265625 0 -2.265625 -0.546875q-0.984375 -0.5625 -1.4375 -1.546875q-0.4375 -1.0 -0.4375 -2.765625l0 -7.875l3.296875 0l0 5.71875q0 2.625 0.171875 3.21875q0.1875 0.59375 0.65625 0.9375q0.484375 0.34375 1.234375 0.34375q0.84375 0 1.5 -0.453125q0.671875 -0.46875 0.921875 -1.15625q0.25 -0.6875 0.25 -3.359375l0 -5.25l3.28125 0l0 12.453125l-3.046875 0zm12.175781 -12.453125l0 2.625l-2.25 0l0 5.015625q0 1.53125 0.0625 1.78125q0.0625 0.25 0.28125 0.421875q0.234375 0.15625 0.5625 0.15625q0.453125 0 1.328125 -0.3125l0.28125 2.546875q-1.15625 0.5 -2.609375 0.5q-0.890625 0 -1.609375 -0.296875q-0.703125 -0.296875 -1.046875 -0.765625q-0.328125 -0.484375 -0.453125 -1.296875q-0.109375 -0.578125 -0.109375 -2.3125l0 -5.4375l-1.515625 0l0 -2.625l1.515625 0l0 -2.46875l3.3125 -1.921875l0 4.390625l2.25 0z" fill-rule="nonzero"/><path fill="#000000" fill-opacity="0.0" d="m586.20734 254.3307l28.75592 0l0 46.67717l-28.75592 0z" fill-rule="evenodd"/><path fill="#000000" d="m596.97296 269.1832l6.859375 0q2.046875 0 3.046875 0.171875q1.0 0.171875 1.78125 0.71875q0.796875 0.53125 1.328125 1.4375q0.53125 0.890625 0.53125 2.0q0 1.203125 -0.65625 2.21875q-0.65625 1.0 -1.765625 1.515625q1.578125 0.453125 2.421875 1.5625q0.84375 1.09375 0.84375 2.578125q0 1.171875 -0.546875 2.28125q-0.546875 1.109375 -1.5 1.78125q-0.9375 0.65625 -2.3125 0.796875q-0.875 0.09375 -4.1875 0.125l-5.84375 0l0 -17.1875zm3.46875 2.859375l0 3.984375l2.265625 0q2.03125 0 2.515625 -0.0625q0.890625 -0.109375 1.40625 -0.609375q0.515625 -0.515625 0.515625 -1.34375q0 -0.796875 -0.453125 -1.296875q-0.4375 -0.5 -1.296875 -0.609375q-0.515625 -0.0625 -2.96875 -0.0625l-1.984375 0zm0 6.84375l0 4.59375l3.203125 0q1.875 0 2.375 -0.109375q0.78125 -0.140625 1.265625 -0.6875q0.484375 -0.546875 0.484375 -1.453125q0 -0.78125 -0.375 -1.3125q-0.375 -0.546875 -1.09375 -0.78125q-0.703125 -0.25 -3.0625 -0.25l-2.796875 0z" fill-rule="nonzero"/><path fill="#000000" fill-opacity="0.0" d="m335.7743 254.3307l95.055115 0l0 46.67717l-95.055115 0z" fill-rule="evenodd"/><path fill="#000000" d="m391.8702 286.3707l-3.765625 0l-1.5 -3.90625l-6.875 0l-1.40625 3.90625l-3.6875 0l6.6875 -17.1875l3.671875 0l6.875 17.1875zm-6.375 -6.796875l-2.375 -6.375l-2.3125 6.375l4.6875 0z" fill-rule="nonzero"/><path fill="#000000" fill-opacity="0.0" d="m586.20734 404.2861l103.84253 0l0 46.677155l-103.84253 0z" fill-rule="evenodd"/><path fill="#000000" d="m607.9417 430.01358l3.375 1.0625q-0.78125 2.8125 -2.578125 4.1875q-1.796875 1.359375 -4.5625 1.359375q-3.421875 0 -5.625 -2.34375q-2.203125 -2.34375 -2.203125 -6.390625q0 -4.296875 2.203125 -6.65625q2.21875 -2.375 5.828125 -2.375q3.15625 0 5.125 1.859375q1.171875 1.09375 1.765625 3.15625l-3.4375 0.828125q-0.3125 -1.34375 -1.28125 -2.109375q-0.953125 -0.78125 -2.34375 -0.78125q-1.90625 0 -3.09375 1.375q-1.1875 1.375 -1.1875 4.4375q0 3.265625 1.171875 4.65625q1.171875 1.375 3.046875 1.375q1.375 0 2.375 -0.875q1.0 -0.890625 1.421875 -2.765625z" fill-rule="nonzero"/><path fill="#000000" fill-opacity="0.0" d="m494.7349 546.6693l120.22049 0l0 56.5354l-120.22049 0z" fill-rule="evenodd"/><path fill="#000000" d="m505.37552 578.7093l0 -17.1875l3.46875 0l0 17.1875l-3.46875 0zm18.07425 0l-3.296875 0l0 -6.359375q0 -2.015625 -0.21875 -2.59375q-0.203125 -0.59375 -0.6875 -0.921875q-0.46875 -0.328125 -1.125 -0.328125q-0.859375 0 -1.546875 0.46875q-0.671875 0.46875 -0.921875 1.25q-0.25 0.765625 -0.25 2.84375l0 5.640625l-3.296875 0l0 -12.453125l3.0625 0l0 1.828125q1.625 -2.109375 4.09375 -2.109375q1.09375 0 1.984375 0.40625q0.90625 0.390625 1.375 1.0q0.46875 0.609375 0.640625 1.390625q0.1875 0.765625 0.1875 2.203125l0 7.734375z" fill-rule="nonzero"/></g></svg>